<?xml version="1.0" encoding="utf-8"?>
<!-- Generator: Adobe Illustrator 25.0.1, SVG Export Plug-In . SVG Version: 6.00 Build 0)  -->
<svg version="1.1" id="Layer_1" xmlns="http://www.w3.org/2000/svg" xmlns:xlink="http://www.w3.org/1999/xlink" x="0px" y="0px"
	 viewBox="0 0 512 512" enable-background="new 0 0 512 512" xml:space="preserve">
<g>
	
		<path fill="#FFFFFF" stroke="#000000" stroke-width="7.9565" stroke-linecap="round" stroke-linejoin="round" stroke-miterlimit="10" d="
		M357.1,256.4h-69.9v134.9h69.9c15,0,27.2-12.2,27.2-27.2v-80.5C384.3,268.5,372.1,256.4,357.1,256.4z M361.6,364.1
		c0,2.5-2,4.5-4.5,4.5h-47.2V279h47.2c2.5,0,4.5,2,4.5,4.5V364.1z"/>
	<path fill="#FFFFFF" d="M282.8,455.1H167.3c-22.9,0-41.5-18.6-41.5-41.5V201.6h198.5v212.1C324.3,436.6,305.7,455.1,282.8,455.1z"
		/>
	
		<path fill="none" stroke="#000000" stroke-width="7.9565" stroke-linecap="round" stroke-linejoin="round" stroke-miterlimit="10" d="
		M275.7,201.6h48.6v212.1c0,22.9-18.6,41.5-41.5,41.5H167.3c-22.9,0-41.5-18.6-41.5-41.5V201.6H246"/>
	<g>
		
			<line fill="none" stroke="#000000" stroke-width="7.9565" stroke-linecap="round" stroke-linejoin="round" stroke-miterlimit="10" x1="261.4" y1="199.1" x2="261.4" y2="289.9"/>
		
			<polygon fill="#F76746" stroke="#000000" stroke-width="7.9565" stroke-linecap="round" stroke-linejoin="round" stroke-miterlimit="10" points="
			288.7,354.2 234.1,354.2 234.1,299.7 261.4,275 288.7,299.7 		"/>
	</g>
	
		<path fill="none" stroke="#000000" stroke-width="7.9565" stroke-linecap="round" stroke-linejoin="round" stroke-miterlimit="10" d="
		M234.7,167.8c0,0,15.4-19.4,15.4-36.2s-15.4-27.5-15.4-38.6s3.7-15.1,3.7-15.1"/>
	
		<path fill="none" stroke="#000000" stroke-width="7.9565" stroke-linecap="round" stroke-linejoin="round" stroke-miterlimit="10" d="
		M201.8,147.2c0,0,15.4-19.4,15.4-36.2s-15.4-27.5-15.4-38.6s3.7-15.1,3.7-15.1"/>
</g>
</svg>
