<?xml version="1.0" encoding="utf-8"?>
<!-- Generator: Adobe Illustrator 25.0.1, SVG Export Plug-In . SVG Version: 6.00 Build 0)  -->
<svg version="1.1" id="Layer_1" xmlns="http://www.w3.org/2000/svg" xmlns:xlink="http://www.w3.org/1999/xlink" x="0px" y="0px"
	 viewBox="0 0 512 512" enable-background="new 0 0 512 512" xml:space="preserve">
<g>
	<circle fill="#FFFFFF" cx="143.1" cy="114.7" r="48.6"/>
	
		<path fill="none" stroke="#000000" stroke-width="7.9565" stroke-linecap="round" stroke-linejoin="round" stroke-miterlimit="10" d="
		M191.4,120.4c0.2-1.9,0.3-3.8,0.3-5.7c0-26.9-21.8-48.6-48.6-48.6s-48.6,21.8-48.6,48.6s21.8,48.6,48.6,48.6c2.5,0,4.9-0.2,7.3-0.5
		"/>
	<g>
		
			<path fill="#FFFFFF" stroke="#000000" stroke-width="7.9565" stroke-linecap="round" stroke-linejoin="round" stroke-miterlimit="10" d="
			M295.8,259.9l119.8-127.3H140.3l119.8,127.3c4.9,5.2,7.6,12,7.6,19.1v151.7l-63.8,19.2H352l-63.8-19.2V279
			C288.2,271.9,290.9,265.1,295.8,259.9z"/>
		<path fill="#F76746" d="M172.9,167.3l69.9,74.2c19.1,20.3,51.3,20.3,70.3,0l69.9-74.2H172.9z"/>
		
			<path fill="none" stroke="#000000" stroke-width="7.9565" stroke-linecap="round" stroke-linejoin="round" stroke-miterlimit="10" d="
			M266.8,167.3h-93.9l69.9,74.2c19.1,20.3,51.3,20.3,70.3,0l69.9-74.2h-42.5"/>
	</g>
	
		<line fill="none" stroke="#000000" stroke-width="7.9565" stroke-linecap="round" stroke-linejoin="round" stroke-miterlimit="10" x1="338.4" y1="119.1" x2="365.9" y2="62.6"/>
	
		<line fill="none" stroke="#000000" stroke-width="7.9565" stroke-linecap="round" stroke-linejoin="round" stroke-miterlimit="10" x1="284.9" y1="228.8" x2="325.7" y2="145.1"/>
	
		<circle fill="#FFFFFF" stroke="#000000" stroke-width="7.9565" stroke-linecap="round" stroke-linejoin="round" stroke-miterlimit="10" cx="304.3" cy="189" r="28.3"/>
</g>
</svg>
