<?xml version="1.0" encoding="utf-8"?>
<!-- Generator: Adobe Illustrator 25.0.1, SVG Export Plug-In . SVG Version: 6.00 Build 0)  -->
<svg version="1.1" id="Layer_1" xmlns="http://www.w3.org/2000/svg" xmlns:xlink="http://www.w3.org/1999/xlink" x="0px" y="0px"
	 viewBox="0 0 512 512" enable-background="new 0 0 512 512" xml:space="preserve">
<g>
	
		<circle fill="#FFFFFF" stroke="#000000" stroke-width="7.9565" stroke-linecap="round" stroke-linejoin="round" stroke-miterlimit="10" cx="255" cy="256.2" r="198.6"/>
	<path fill="#FFFFFF" d="M255,411.1c-85.4,0-154.9-69.5-154.9-154.9S169.6,101.3,255,101.3s154.9,69.5,154.9,154.9
		S340.4,411.1,255,411.1z"/>
	
		<path fill="none" stroke="#000000" stroke-width="7.9565" stroke-linecap="round" stroke-linejoin="round" stroke-miterlimit="10" d="
		M114,192.2c24.4-53.5,78.4-90.8,141-90.8"/>
	
		<path fill="none" stroke="#000000" stroke-width="7.9565" stroke-linecap="round" stroke-linejoin="round" stroke-miterlimit="10" d="
		M202.6,402c-14.1-5.1-27.2-12.1-39-20.8"/>
	
		<path fill="none" stroke="#000000" stroke-width="7.9565" stroke-linecap="round" stroke-linejoin="round" stroke-miterlimit="10" d="
		M330.1,391.7c-4.3,2.4-8.7,4.6-13.2,6.5"/>
	
		<path fill="none" stroke="#000000" stroke-width="7.9565" stroke-linecap="round" stroke-linejoin="round" stroke-miterlimit="10" d="
		M391.2,182.5c11.9,21.9,18.7,47.1,18.7,73.8c0,14.6-2,28.6-5.8,42"/>
	<path fill="#FFFFFF" d="M234.6,226.5c0,0-24.4-63.2-60-56.8c-23.2,4.2-28.9,22.5-30,34.8c-0.5,4.8-5.5,7.7-9.9,5.6
		c-14.3-6.6-33.1-8.9-40.3,7.5c-2.7,6.2-2.3,13.4,0.3,19.6c0.6,1.4,1.3,2.8,2.1,4.1c2.2,3.6,1.1,8.2-2.6,10.4
		c-0.1,0.1-0.3,0.2-0.4,0.2c-4.1,2.7-6.6,7.2-8.2,11.9c-3,8.7-3.5,18.6,0.3,27.1c3.2,7.2,10.9,13.7,18.9,15.3c5,1,8.1,6.2,6.4,11.1
		c-1.8,5.4-3.3,12.4-3.5,21.2c-0.7,25.9,25.7,36.8,40.9,31.2c15.2-5.6,49.4-17.9,54.2-28.4C207.3,331,234.6,226.5,234.6,226.5z"/>
	
		<path fill="none" stroke="#000000" stroke-width="7.9565" stroke-linecap="round" stroke-linejoin="round" stroke-miterlimit="10" d="
		M215.4,192.2c-10.4-13.6-24.4-25.4-40.8-22.4c-23.2,4.2-28.9,22.5-30,34.8c-0.5,4.8-5.5,7.7-9.9,5.6c-14.3-6.6-33.1-8.9-40.3,7.5
		c-2.7,6.2-2.3,13.4,0.3,19.6c0.6,1.4,1.3,2.8,2.1,4.1c2.2,3.6,1.1,8.2-2.6,10.4c-0.1,0.1-0.3,0.2-0.4,0.2
		c-4.1,2.7-6.6,7.2-8.2,11.9c-3,8.7-3.5,18.6,0.3,27.1c3.2,7.2,10.9,13.7,18.9,15.3c5,1,8.1,6.2,6.4,11.1
		c-1.8,5.4-3.3,12.4-3.5,21.2c-0.7,25.9,25.7,36.8,40.9,31.2c7.3-2.7,19.1-7,29.8-11.8"/>
	
		<path fill="#F76746" stroke="#000000" stroke-width="7.9565" stroke-linecap="round" stroke-linejoin="round" stroke-miterlimit="10" d="
		M362.5,266.4c8.9-26.5,12.5-55,14.7-83.1c3.8-49.6-26.7-82-77.1-80.1c-16.5,0.6-33.5,7.1-43.6,20.2c-17.8,23-10.3,58.7-28.2,81.6
		c-23.8,30.4-76.2,23.9-87.1,67c-6.1,24.3,10,49.1,30.1,64.1c61.9,46.3,146.5,22.1,180.8-44.7C356.1,283.3,359.6,275,362.5,266.4z"
		/>
	
		<circle fill="#FFFFFF" stroke="#000000" stroke-width="7.9565" stroke-linecap="round" stroke-linejoin="round" stroke-miterlimit="10" cx="380" cy="331.2" r="20.8"/>
	
		<circle fill="#FFFFFF" stroke="#000000" stroke-width="7.9565" stroke-linecap="round" stroke-linejoin="round" stroke-miterlimit="10" cx="350.9" cy="363.2" r="20.8"/>
	
		<circle fill="#F76746" stroke="#000000" stroke-width="7.9565" stroke-linecap="round" stroke-linejoin="round" stroke-miterlimit="10" cx="283.8" cy="398.2" r="20.8"/>
	
		<circle fill="#FFFFFF" stroke="#000000" stroke-width="7.9565" stroke-linecap="round" stroke-linejoin="round" stroke-miterlimit="10" cx="240.1" cy="402" r="20.8"/>
	
		<line fill="none" stroke="#000000" stroke-width="7.9565" stroke-linecap="round" stroke-linejoin="round" stroke-miterlimit="10" x1="195" y1="272.2" x2="240.1" y2="317.6"/>
	
		<line fill="none" stroke="#000000" stroke-width="7.9565" stroke-linecap="round" stroke-linejoin="round" stroke-miterlimit="10" x1="244.6" y1="246" x2="295.7" y2="297.4"/>
	
		<line fill="none" stroke="#000000" stroke-width="7.9565" stroke-linecap="round" stroke-linejoin="round" stroke-miterlimit="10" x1="289" y1="211.7" x2="320.4" y2="243.3"/>
	
		<line fill="none" stroke="#000000" stroke-width="7.9565" stroke-linecap="round" stroke-linejoin="round" stroke-miterlimit="10" x1="302.5" y1="155.2" x2="330.4" y2="183.3"/>
</g>
</svg>
