<?xml version="1.0" encoding="utf-8"?>
<!-- Generator: Adobe Illustrator 25.0.1, SVG Export Plug-In . SVG Version: 6.00 Build 0)  -->
<svg version="1.1" id="Layer_1" xmlns="http://www.w3.org/2000/svg" xmlns:xlink="http://www.w3.org/1999/xlink" x="0px" y="0px"
	 viewBox="0 0 512 512" enable-background="new 0 0 512 512" xml:space="preserve">
<g>
	
		<rect x="146.6" y="405.5" fill="#F76746" stroke="#000000" stroke-width="7.9565" stroke-linecap="round" stroke-linejoin="round" stroke-miterlimit="10" width="216.9" height="37.6"/>
	<polygon fill="#FFFFFF" points="363.5,405.5 146.6,405.5 131,242.3 379.1,242.3 	"/>
	
		<polyline fill="none" stroke="#000000" stroke-width="7.9565" stroke-linecap="round" stroke-linejoin="round" stroke-miterlimit="10" points="
		374.6,288.8 363.5,405.5 146.6,405.5 135.4,288.8 	"/>
	
		<path fill="#FFFFFF" stroke="#000000" stroke-width="7.9565" stroke-linecap="round" stroke-linejoin="round" stroke-miterlimit="10" d="
		M371.7,112.2c-9.9,0-19.3,1.7-28.1,4.9c-18.3-28.7-50.4-47.8-87-47.8c-37,0-69.4,19.5-87.6,48.8c-9.5-3.8-19.8-5.9-30.6-5.9
		c-45.3,0-82.1,36.7-82.1,82.1s36.7,82.1,82.1,82.1c21.5,0,41.1-8.3,55.7-21.8c17.3,13.2,39,21.1,62.5,21.1
		c22.7,0,43.8-7.4,60.8-19.8c14.5,12.8,33.5,20.6,54.3,20.6c45.3,0,82.1-36.7,82.1-82.1S417,112.2,371.7,112.2z"/>
	
		<line fill="none" stroke="#000000" stroke-width="7.9565" stroke-linecap="round" stroke-linejoin="round" stroke-miterlimit="10" x1="255" y1="323.9" x2="255" y2="405.5"/>
	<g>
		
			<line fill="none" stroke="#000000" stroke-width="7.9565" stroke-linecap="round" stroke-linejoin="round" stroke-miterlimit="10" x1="203.7" y1="405.5" x2="200.8" y2="346.1"/>
		
			<line fill="none" stroke="#000000" stroke-width="7.9565" stroke-linecap="round" stroke-linejoin="round" stroke-miterlimit="10" x1="306.4" y1="405.5" x2="309.2" y2="346.1"/>
	</g>
	
		<path fill="none" stroke="#000000" stroke-width="7.9565" stroke-linecap="round" stroke-linejoin="round" stroke-miterlimit="10" d="
		M169,118.1c0,0,14.4,4.9,25.1,15c8.4,7.9,13.4,19.7,13.4,19.7"/>
</g>
</svg>
