<?xml version="1.0" encoding="utf-8"?>
<!-- Generator: Adobe Illustrator 25.0.1, SVG Export Plug-In . SVG Version: 6.00 Build 0)  -->
<svg version="1.1" id="Layer_1" xmlns="http://www.w3.org/2000/svg" xmlns:xlink="http://www.w3.org/1999/xlink" x="0px" y="0px"
	 viewBox="0 0 512 512" enable-background="new 0 0 512 512" xml:space="preserve">
<g>
	
		<path fill="#F76746" stroke="#000000" stroke-width="7.9565" stroke-linecap="round" stroke-linejoin="round" stroke-miterlimit="10" d="
		M443,420.7H67.1c-6.1,0-11-4.9-11-11v-4.5c0-6.1,4.9-11,11-11H443c6.1,0,11,4.9,11,11v4.5C453.9,415.8,449,420.7,443,420.7z"/>
	<path fill="#FFFFFF" d="M255,210.1c-101.7,0-184.1,82.4-184.1,184.1h368.2C439.2,292.5,356.7,210.1,255,210.1z"/>
	
		<path fill="none" stroke="#000000" stroke-width="7.9565" stroke-linecap="round" stroke-linejoin="round" stroke-miterlimit="10" d="
		M208.6,216c-79.2,20.6-137.7,92.6-137.7,178.2h368.2c0-85.1-57.7-156.7-136.1-177.8"/>
	
		<line fill="none" stroke="#000000" stroke-width="7.9565" stroke-linecap="round" stroke-linejoin="round" stroke-miterlimit="10" x1="255" y1="196.9" x2="255" y2="191.3"/>
	<rect x="228.3" y="175.5" fill="#FFFFFF" width="53.4" height="19.4"/>
	
		<polyline fill="none" stroke="#000000" stroke-width="7.9565" stroke-linecap="round" stroke-linejoin="round" stroke-miterlimit="10" points="
		281.7,192.7 281.7,194.9 228.3,194.9 228.3,192.7 	"/>
	<g>
		<g>
			
				<path fill="#FFFFFF" stroke="#000000" stroke-width="7.9565" stroke-linecap="round" stroke-linejoin="round" stroke-miterlimit="10" d="
				M220.4,231.9L220.4,231.9c2.7,4.7,7.9,7.4,13.2,6.8c7-0.8,14.2-1.2,21.4-1.2s14.4,0.4,21.4,1.2c5.4,0.6,10.5-2.1,13.2-6.8l0,0
				c5-8.7-0.6-19.5-10.5-20.6c-7.9-0.9-16-1.3-24.1-1.3c-8.2,0-16.2,0.4-24.1,1.3C221,212.3,215.4,223.2,220.4,231.9z"/>
			
				<path fill="#FFFFFF" stroke="#000000" stroke-width="7.9565" stroke-linecap="round" stroke-linejoin="round" stroke-miterlimit="10" d="
				M190.8,175.3l0.3,0.5c2.9,5,8.7,7.5,14.4,6.4c16-3.2,32.6-5,49.6-5s33.5,1.7,49.6,5c5.7,1.2,11.5-1.3,14.4-6.4l0.3-0.5
				c4.7-8.1-0.1-18.3-9.3-20.2c-17.8-3.6-36.2-5.5-55-5.5s-37.2,1.9-55,5.5C190.8,156.9,186.1,167.1,190.8,175.3z"/>
			
				<path fill="#FFFFFF" stroke="#000000" stroke-width="7.9565" stroke-linecap="round" stroke-linejoin="round" stroke-miterlimit="10" d="
				M162.1,122.9L162.1,122.9c3.1,5.3,9.3,8,15.3,6.5c24.8-6.5,50.9-10,77.7-10s52.9,3.5,77.7,10c5.9,1.6,12.2-1.2,15.3-6.5l0,0
				c4.5-7.8,0.4-18-8.3-20.2c-27-7.1-55.4-10.9-84.6-10.9s-57.6,3.8-84.6,10.9C161.6,105,157.5,115.1,162.1,122.9z"/>
		</g>
		
			<circle fill="#FFFFFF" stroke="#000000" stroke-width="7.9565" stroke-linecap="round" stroke-linejoin="round" stroke-miterlimit="10" cx="255" cy="279.7" r="15.8"/>
	</g>
</g>
</svg>
