<?xml version="1.0" encoding="utf-8"?>
<!-- Generator: Adobe Illustrator 25.0.1, SVG Export Plug-In . SVG Version: 6.00 Build 0)  -->
<svg version="1.1" id="Layer_1" xmlns="http://www.w3.org/2000/svg" xmlns:xlink="http://www.w3.org/1999/xlink" x="0px" y="0px"
	 viewBox="0 0 512 512" enable-background="new 0 0 512 512" xml:space="preserve">
<g>
	<path fill="#FFFFFF" d="M294.6,219.1l15.6,6.4l65.8-152.9c2.4-5.6-0.2-12.1-5.9-14.5l0,0c-5.7-2.3-12.1,0.4-14.4,6.1L294.6,219.1z"
		/>
	
		<path fill="none" stroke="#000000" stroke-width="7.9565" stroke-linecap="round" stroke-linejoin="round" stroke-miterlimit="10" d="
		M347.3,139.2l28.6-66.6c2.4-5.6-0.2-12.1-5.9-14.5l0,0c-5.7-2.3-12.1,0.4-14.4,6.1l-20,50.6"/>
	<circle fill="#FFFFFF" cx="266.7" cy="166.7" r="71.8"/>
	
		<path fill="none" stroke="#000000" stroke-width="7.9565" stroke-linecap="round" stroke-linejoin="round" stroke-miterlimit="10" d="
		M198.2,145.3c9.1-29.2,36.4-50.4,68.6-50.4c38.5,0,69.9,30.3,71.7,68.3"/>
	
		<circle fill="#F76746" stroke="#000000" stroke-width="7.9565" stroke-linecap="round" stroke-linejoin="round" stroke-miterlimit="10" cx="192.1" cy="230" r="71.8"/>
	
		<circle fill="#FFFFFF" stroke="#000000" stroke-width="7.9565" stroke-linecap="round" stroke-linejoin="round" stroke-miterlimit="10" cx="321.6" cy="246.9" r="71.8"/>
	<path fill="#FFFFFF" d="M102.3,237.1L102.3,237.1c0,51.7,41.9,93.5,93.5,93.5h25c10.5,0,19.1,8.2,19.7,18.6l3.7,66.9
		c0.5,9.2-5,17.6-13.6,20.9l-48.4,18.2h145.6L279.4,437c-8.6-3.2-14.1-11.7-13.6-20.9l3.7-66.9c0.6-10.5,9.2-18.6,19.7-18.6h25
		c51.7,0,93.5-41.9,93.5-93.5v0H102.3z"/>
	
		<path fill="none" stroke="#000000" stroke-width="7.9565" stroke-linecap="round" stroke-linejoin="round" stroke-miterlimit="10" d="
		M146.6,237.1h-44.3v0c0,51.7,41.9,93.5,93.5,93.5h25c10.5,0,19.1,8.2,19.7,18.6l3.7,66.9c0.5,9.2-5,17.6-13.6,20.9l-48.4,18.2
		h145.6L279.4,437c-8.6-3.2-14.1-11.7-13.6-20.9l3.7-66.9c0.6-10.5,9.2-18.6,19.7-18.6h25c51.7,0,93.5-41.9,93.5-93.5v0H194.9"/>
	<path fill="#F76746" d="M170.7,271L170.7,271c-6,0-10.8-4.8-10.8-10.8v-31.1h21.6v31.1C181.5,266.2,176.6,271,170.7,271z"/>
	
		<path fill="none" stroke="#000000" stroke-width="7.9565" stroke-linecap="round" stroke-linejoin="round" stroke-miterlimit="10" d="
		M181.5,229.1v31.1c0,6-4.8,10.8-10.8,10.8h0c-6,0-10.8-4.8-10.8-10.8v-31.1"/>
</g>
</svg>
