<?xml version="1.0" encoding="utf-8"?>
<!-- Generator: Adobe Illustrator 25.0.1, SVG Export Plug-In . SVG Version: 6.00 Build 0)  -->
<svg version="1.1" id="Layer_1" xmlns="http://www.w3.org/2000/svg" xmlns:xlink="http://www.w3.org/1999/xlink" x="0px" y="0px"
	 viewBox="0 0 512 512" enable-background="new 0 0 512 512" xml:space="preserve">
<g>
	<g>
		<path fill="#FFFFFF" d="M230.4,372.6l13.4-64.2c2.9-12,13.6-20.4,25.9-20.4h0.8c4.2,0,7.4,3.8,6.6,8l-12.8,76.6H230.4z"/>
		
			<path fill="none" stroke="#000000" stroke-width="7.9565" stroke-linecap="round" stroke-linejoin="round" stroke-miterlimit="10" d="
			M234.4,353.1l0.7-3.3l8.6-41.4c2.9-12,13.6-20.4,25.9-20.4h0.8c4.2,0,7.4,3.8,6.6,8"/>
		<path fill="#FFFFFF" d="M252.1,372.6l30.1-65.7c6.1-11.6,18.1-18.9,31.3-18.9h0c6,0,9.9,6.2,7.4,11.6l-30.5,72.9H252.1z"/>
		
			<path fill="none" stroke="#000000" stroke-width="7.9565" stroke-linecap="round" stroke-linejoin="round" stroke-miterlimit="10" d="
			M264.7,345l17.4-38.1c6.1-11.6,18.1-18.9,31.3-18.9h0"/>
		
			<path fill="#FFFFFF" stroke="#000000" stroke-width="7.9565" stroke-linecap="round" stroke-linejoin="round" stroke-miterlimit="10" d="
			M182.2,425.9v-127c0-6,4.9-10.9,10.9-10.9h0c13.6,0,24.6,11,24.6,24.6v36.6c0,8.3,6.7,15.1,15.1,15.1h7.5c9,0,17.8-2.2,25.5-6.4
			c6.3-3.3,11.7-8.1,16.2-13.6l35.7-43.3c8.3-8.3,19.5-13,31.3-13h5.3c6.6,0,10,7.9,5.5,12.7l-51.6,62.8
			c-5.8,6.1-11.1,12.5-15.9,19.4c-2.2,3-3.6,6.2-4.8,9.6c-2.4,6.5-3.8,13.4-4.4,20.4l-1.8,13H182.2z"/>
		
			<path fill="#F76746" stroke="#000000" stroke-width="7.9565" stroke-linecap="round" stroke-linejoin="round" stroke-miterlimit="10" d="
			M287.3,425.9H176.7c-4.5,0-8.1,3.6-8.1,8.1v13.1c0,4.5,3.6,8.1,8.1,8.1h110.6c4.5,0,8.1-3.6,8.1-8.1v-13.1
			C295.4,429.5,291.7,425.9,287.3,425.9z"/>
	</g>
	
		<path fill="#F76746" stroke="#000000" stroke-width="7.9565" stroke-linecap="round" stroke-linejoin="round" stroke-miterlimit="10" d="
		M431.9,288H78.2c-5.7,0-10.3-4.6-10.3-10.3v-4.2c0-5.7,4.6-10.3,10.3-10.3h353.6c5.7,0,10.3,4.6,10.3,10.3v4.2
		C442.2,283.4,437.5,288,431.9,288z"/>
	
		<path fill="#FFFFFF" stroke="#000000" stroke-width="7.9565" stroke-linecap="round" stroke-linejoin="round" stroke-miterlimit="10" d="
		M255,89.9c-95.7,0-173.2,77.6-173.2,173.2h346.4C428.2,167.5,350.7,89.9,255,89.9z"/>
	
		<line fill="none" stroke="#000000" stroke-width="7.9565" stroke-linecap="round" stroke-linejoin="round" stroke-miterlimit="10" x1="255" y1="89.9" x2="255" y2="72.3"/>
	
		<rect x="229.9" y="57.3" fill="#FFFFFF" stroke="#000000" stroke-width="7.9565" stroke-linecap="round" stroke-linejoin="round" stroke-miterlimit="10" width="50.3" height="18.3"/>
</g>
</svg>
