<?xml version="1.0" encoding="utf-8"?>
<!-- Generator: Adobe Illustrator 25.0.1, SVG Export Plug-In . SVG Version: 6.00 Build 0)  -->
<svg version="1.1" id="Layer_1" xmlns="http://www.w3.org/2000/svg" xmlns:xlink="http://www.w3.org/1999/xlink" x="0px" y="0px"
	 viewBox="0 0 512 512" enable-background="new 0 0 512 512" xml:space="preserve">
<g>
	<g>
		<g>
			
				<path fill="#F76746" stroke="#000000" stroke-width="7.9565" stroke-linecap="round" stroke-linejoin="round" stroke-miterlimit="10" d="
				M286.8,115.1h-63.5c-27.6,0-42,22.4-42,50v54.2c3.3-2.8-0.5-4.6,4.2-4.6c4,0,7.8,1.3,10.8,3.5v-40.2c0-15.3,12.4-27.7,27.7-27.7
				h61c15.3,0,27.7,12.4,27.7,27.7v40.3c3.1-2.2,6.9-3.6,10.9-3.6c5.1,0,1.7,2.1,5.1,5.4v-55C328.8,137.5,314.4,115.1,286.8,115.1z"
				/>
			<g>
				<path fill="#FFFFFF" d="M336.7,328.8h-59.8v-32.6h-43.7v32.6h-59.8c-15.3,0-27.7,12.4-27.7,27.7v98.6h218.7v-98.6
					C364.4,341.2,352,328.8,336.7,328.8z"/>
				
					<path fill="none" stroke="#000000" stroke-width="7.9565" stroke-linecap="round" stroke-linejoin="round" stroke-miterlimit="10" d="
					M204,328.8h-30.6c-15.3,0-27.7,12.4-27.7,27.7v98.6h218.7v-98.6c0-15.3-12.4-27.7-27.7-27.7h-29"/>
				
					<polyline fill="none" stroke="#000000" stroke-width="7.9565" stroke-linecap="round" stroke-linejoin="round" stroke-miterlimit="10" points="
					276.9,304.5 276.9,296.2 233.2,296.2 233.2,305.3 				"/>
				<g>
					
						<circle fill="#FFFFFF" stroke="#000000" stroke-width="7.9565" stroke-linecap="round" stroke-linejoin="round" stroke-miterlimit="10" cx="185.9" cy="230.7" r="18.7"/>
					
						<circle fill="#FFFFFF" stroke="#000000" stroke-width="7.9565" stroke-linecap="round" stroke-linejoin="round" stroke-miterlimit="10" cx="324.1" cy="230.7" r="18.7"/>
				</g>
				
					<path fill="#FFFFFF" stroke="#000000" stroke-width="7.9565" stroke-linecap="round" stroke-linejoin="round" stroke-miterlimit="10" d="
					M285.5,296.2h-61c-15.3,0-27.7-12.4-27.7-27.7v-90.6c0-15.3,12.4-27.7,27.7-27.7h61c15.3,0,27.7,12.4,27.7,27.7v90.6
					C313.3,283.8,300.8,296.2,285.5,296.2z"/>
			</g>
		</g>
		
			<path fill="#FFFFFF" stroke="#000000" stroke-width="7.9565" stroke-linecap="round" stroke-linejoin="round" stroke-miterlimit="10" d="
			M322.9,68.9c-9.5,0-18,3.8-24.3,10c-9.8-13.1-25.4-21.5-43-21.5c-17.6,0-33.2,8.4-43,21.5c-6.2-6.2-14.8-10-24.3-10
			c-19.2,0-34.7,15.5-34.7,34.7c0,16.3,11.3,30,26.5,33.7v39.3h151v-39.3c15.2-3.7,26.5-17.3,26.5-33.7
			C357.6,84.4,342.1,68.9,322.9,68.9z"/>
		<g>
			
				<path fill="none" stroke="#000000" stroke-width="7.9565" stroke-linecap="round" stroke-linejoin="round" stroke-miterlimit="10" d="
				M258.7,352.3c4.6,10,14.2,15.4,27.9,15.4"/>
		</g>
		
			<line fill="none" stroke="#000000" stroke-width="7.9565" stroke-linecap="round" stroke-linejoin="round" stroke-miterlimit="10" x1="286.6" y1="367.7" x2="286.6" y2="455.1"/>
		
			<path fill="#F76746" stroke="#000000" stroke-width="7.9565" stroke-linecap="round" stroke-linejoin="round" stroke-miterlimit="10" d="
			M285.8,317.2h-59.2c-4.4,0-7.9,3.5-7.9,7.9v7.8c0,0.4,0.1,0.9,0.1,1.3c-2.6,0.8-5.2,2-7.5,3.8c-9.4,7.6-9.6,22.8-9.6,22.8
			s15,2.9,24.3-4.7c5.1-4.1,7.5-10.4,8.6-15.4h51.1c4.4,0,7.9-3.5,7.9-7.9v-7.8C293.7,320.7,290.2,317.2,285.8,317.2z"/>
		
			<circle fill="#FFFFFF" stroke="#000000" stroke-width="7.9565" stroke-linecap="round" stroke-linejoin="round" stroke-miterlimit="10" cx="259.9" cy="390.7" r="9.2"/>
		
			<circle fill="#FFFFFF" stroke="#000000" stroke-width="7.9565" stroke-linecap="round" stroke-linejoin="round" stroke-miterlimit="10" cx="259.9" cy="431.1" r="9.2"/>
		<g>
			
				<line fill="none" stroke="#000000" stroke-width="7.9565" stroke-linecap="round" stroke-linejoin="round" stroke-miterlimit="10" x1="283.8" y1="115.1" x2="283.8" y2="150.2"/>
			
				<line fill="none" stroke="#000000" stroke-width="7.9565" stroke-linecap="round" stroke-linejoin="round" stroke-miterlimit="10" x1="227.5" y1="115.1" x2="227.5" y2="150.2"/>
		</g>
	</g>
	<g>
		
			<line fill="none" stroke="#000000" stroke-width="7.9565" stroke-linecap="round" stroke-linejoin="round" stroke-miterlimit="10" x1="274.9" y1="207.8" x2="274.9" y2="216.9"/>
		
			<line fill="none" stroke="#000000" stroke-width="7.9565" stroke-linecap="round" stroke-linejoin="round" stroke-miterlimit="10" x1="235.1" y1="207.8" x2="235.1" y2="216.9"/>
	</g>
	<g>
		
			<path fill="none" stroke="#000000" stroke-width="7.9565" stroke-linecap="round" stroke-linejoin="round" stroke-miterlimit="10" d="
			M254.9,265.8c0,0,7.9-4.2,14.5-3.9c6.6,0.3,12,8.4,25.5,8.2"/>
		
			<path fill="none" stroke="#000000" stroke-width="7.9565" stroke-linecap="round" stroke-linejoin="round" stroke-miterlimit="10" d="
			M255.1,265.8c0,0-7.9-4.2-14.5-3.9c-6.6,0.3-12,8.4-25.5,8.2"/>
	</g>
</g>
</svg>
