<?xml version="1.0" encoding="utf-8"?>
<!-- Generator: Adobe Illustrator 25.0.1, SVG Export Plug-In . SVG Version: 6.00 Build 0)  -->
<svg version="1.1" id="Layer_1" xmlns="http://www.w3.org/2000/svg" xmlns:xlink="http://www.w3.org/1999/xlink" x="0px" y="0px"
	 viewBox="0 0 512 512" enable-background="new 0 0 512 512" xml:space="preserve">
<g>
	<circle fill="#FFFFFF" cx="208.3" cy="355" r="42.1"/>
	
		<path fill="none" stroke="#000000" stroke-width="7.9565" stroke-linecap="round" stroke-linejoin="round" stroke-miterlimit="10" d="
		M247.1,371.4c-6.4,15.1-21.3,25.7-38.8,25.7c-16.6,0-31-9.6-37.8-23.6"/>
	<circle fill="#FFFFFF" cx="411.6" cy="355" r="42.1"/>
	
		<path fill="none" stroke="#000000" stroke-width="7.9565" stroke-linecap="round" stroke-linejoin="round" stroke-miterlimit="10" d="
		M424,314.7c17.2,5.3,29.7,21.3,29.7,40.2c0,23.2-18.8,42.1-42.1,42.1s-42.1-18.8-42.1-42.1c0-18.6,12-34.3,28.7-39.9"/>
	<path fill="#FFFFFF" d="M411.6,373.4c-10.2,0-18.5-8.3-18.5-18.5s8.3-18.5,18.5-18.5s18.5,8.3,18.5,18.5S421.8,373.4,411.6,373.4z"
		/>
	
		<path fill="none" stroke="#000000" stroke-width="7.9565" stroke-linecap="round" stroke-linejoin="round" stroke-miterlimit="10" d="
		M430,355c0,10.2-8.3,18.5-18.5,18.5S393,365.2,393,355c0-7.2,4.1-13.4,10.1-16.4"/>
	<path fill="#FFFFFF" d="M208.3,373.4c-10.2,0-18.5-8.3-18.5-18.5s8.3-18.5,18.5-18.5s18.5,8.3,18.5,18.5S218.5,373.4,208.3,373.4z"
		/>
	
		<path fill="none" stroke="#000000" stroke-width="7.9565" stroke-linecap="round" stroke-linejoin="round" stroke-miterlimit="10" d="
		M220.1,369.1c-3.2,2.7-7.3,4.3-11.8,4.3c-4.1,0-8-1.4-11-3.7"/>
	
		<path fill="none" stroke="#000000" stroke-width="7.9565" stroke-linecap="round" stroke-linejoin="round" stroke-miterlimit="10" d="
		M189.9,355c0-10.2,8.3-18.5,18.5-18.5s18.5,8.3,18.5,18.5"/>
	
		<path fill="#FFFFFF" stroke="#000000" stroke-width="7.9565" stroke-linecap="round" stroke-linejoin="round" stroke-miterlimit="10" d="
		M357.7,355c0-28.5,22.2-51.8,50.1-53.8l-23.6-99.9h-40l2.4,101.1c0,12.3-9.9,22.2-22.2,22.2H289c-12.6,0-22.9-10.2-22.9-22.9v-46.3
		H195c-8.9,0-17.6,3.2-24.3,9c-15.8,13.7-26.9,32-31.6,52.4l-9.6,41.6h228.3C357.7,357.3,357.7,356.1,357.7,355z"/>
	
		<rect x="344.2" y="168.6" fill="#FFFFFF" stroke="#000000" stroke-width="7.9565" stroke-linecap="round" stroke-linejoin="round" stroke-miterlimit="10" width="39.9" height="32.7"/>
	
		<rect x="384.1" y="168.6" fill="#F76746" stroke="#000000" stroke-width="7.9565" stroke-linecap="round" stroke-linejoin="round" stroke-miterlimit="10" width="16.6" height="32.7"/>
	
		<line fill="none" stroke="#000000" stroke-width="7.9565" stroke-linecap="round" stroke-linejoin="round" stroke-miterlimit="10" x1="344.2" y1="182.8" x2="311.4" y2="182.8"/>
	
		<line fill="none" stroke="#000000" stroke-width="7.9565" stroke-linecap="round" stroke-linejoin="round" stroke-miterlimit="10" x1="359.9" y1="168.6" x2="349.5" y2="152.2"/>
	
		<path fill="#FFFFFF" stroke="#000000" stroke-width="7.9565" stroke-linecap="round" stroke-linejoin="round" stroke-miterlimit="10" d="
		M350.9,151.3h-6.7v-35.9h6.7c3.5,0,6.2,2.8,6.2,6.2V145C357.1,148.5,354.3,151.3,350.9,151.3z"/>
	
		<path fill="#F76746" stroke="#000000" stroke-width="7.9565" stroke-linecap="round" stroke-linejoin="round" stroke-miterlimit="10" d="
		M192,225.9h77.5c8.1,0,14.7,6.6,14.7,14.7l0,0c0,8.1-6.6,14.7-14.7,14.7H192c-8.1,0-14.7-6.6-14.7-14.7l0,0
		C177.3,232.5,183.9,225.9,192,225.9z"/>
	
		<polyline fill="none" stroke="#000000" stroke-width="7.9565" stroke-linecap="round" stroke-linejoin="round" stroke-miterlimit="10" points="
		405.9,293.5 420.8,354.7 406.9,354.7 	"/>
	
		<rect x="56.4" y="152.2" fill="#FFFFFF" stroke="#000000" stroke-width="7.9565" stroke-linecap="round" stroke-linejoin="round" stroke-miterlimit="10" width="106.4" height="103.2"/>
	
		<line fill="none" stroke="#000000" stroke-width="7.9565" stroke-linecap="round" stroke-linejoin="round" stroke-miterlimit="10" x1="192.3" y1="255.4" x2="151.5" y2="255.4"/>
	
		<line fill="none" stroke="#000000" stroke-width="7.9565" stroke-linecap="round" stroke-linejoin="round" stroke-miterlimit="10" x1="126.4" y1="255.4" x2="152.7" y2="284.8"/>
</g>
</svg>
