<?xml version="1.0" encoding="utf-8"?>
<!-- Generator: Adobe Illustrator 25.0.1, SVG Export Plug-In . SVG Version: 6.00 Build 0)  -->
<svg version="1.1" id="Layer_1" xmlns="http://www.w3.org/2000/svg" xmlns:xlink="http://www.w3.org/1999/xlink" x="0px" y="0px"
	 viewBox="0 0 512 512" enable-background="new 0 0 512 512" xml:space="preserve">
<g>
	<g>
		
			<path fill="#FFFFFF" stroke="#000000" stroke-width="7.9565" stroke-linecap="round" stroke-linejoin="round" stroke-miterlimit="10" d="
			M166.4,140L166.4,140c-4.4,0-7.9-3.5-7.9-7.9V65c0-4.2-3.4-7.6-7.6-7.6h-0.1c-4.2,0-7.6,3.4-7.6,7.6v67.2c0,4.4-3.5,7.9-7.9,7.9h0
			c-4.4,0-7.9-3.5-7.9-7.9V65c0-4.2-3.4-7.6-7.6-7.6h0c-4.2,0-7.6,3.4-7.6,7.6v88.8c0,17.3,11.4,32,27,37l-3.4,249
			c-0.1,8.5,6.7,15.5,15.2,15.5c8.5,0,15.4-7,15.2-15.5l-3.4-249c15.7-5,27-19.7,27-37V65c0-4.2-3.4-7.6-7.6-7.6h0
			c-4.2,0-7.6,3.4-7.6,7.6v67.2C174.3,136.5,170.8,140,166.4,140z"/>
		
			<path fill="#FFFFFF" stroke="#000000" stroke-width="7.9565" stroke-linecap="round" stroke-linejoin="round" stroke-miterlimit="10" d="
			M307.7,144c0-37.7-22.4-86.6-50-86.6s-50,49-50,86.6c0,31.7,15.8,47,37.3,51.1l-3.7,243.4c-0.1,9.2,7.3,16.7,16.5,16.7
			c9.2,0,16.6-7.5,16.5-16.7l-3.7-243.4C291.9,191,307.7,175.6,307.7,144z"/>
	</g>
	<g>
		
			<path fill="#F76746" stroke="#000000" stroke-width="7.9565" stroke-linecap="round" stroke-linejoin="round" stroke-miterlimit="10" d="
			M360.8,455.1L360.8,455.1c-9.7,0-17.6-7.9-17.6-17.6V314.3h35.1v123.3C378.4,447.3,370.5,455.1,360.8,455.1z"/>
		
			<path fill="#FFFFFF" stroke="#000000" stroke-width="7.9565" stroke-linecap="round" stroke-linejoin="round" stroke-miterlimit="10" d="
			M343.2,314.3c0,0,51.8,0,51.8,0c2.4-24.3,3.7-48.8,2.6-73.3c-1.1-24.1-5.6-47.5-10.8-71c-8.4-37.9-19.5-76.6-41.8-108.9l-1.8-2.6
			V314.3z"/>
	</g>
</g>
</svg>
