<?xml version="1.0" encoding="utf-8"?>
<!-- Generator: Adobe Illustrator 25.0.1, SVG Export Plug-In . SVG Version: 6.00 Build 0)  -->
<svg version="1.1" id="Layer_1" xmlns="http://www.w3.org/2000/svg" xmlns:xlink="http://www.w3.org/1999/xlink" x="0px" y="0px"
	 viewBox="0 0 512 512" enable-background="new 0 0 512 512" xml:space="preserve">
<g>
	
		<path fill="#F76746" stroke="#000000" stroke-width="7.9565" stroke-linecap="round" stroke-linejoin="round" stroke-miterlimit="10" d="
		M444,377.9L444,377.9c5.6,0,10.1-4.5,10.1-10.1v-71.1h-20.3v71.1C433.9,373.4,438.4,377.9,444,377.9z"/>
	
		<path fill="#FFFFFF" stroke="#000000" stroke-width="7.9565" stroke-linecap="round" stroke-linejoin="round" stroke-miterlimit="10" d="
		M454.2,296.7c0,0-29.9,0-29.9,0c-1.4-14-2.1-28.2-1.5-42.3c0.6-13.9,3.2-27.4,6.2-40.9c4.9-21.8,11.2-42.7,24.1-61.3l1-1.5V296.7z"
		/>
	
		<circle fill="#FFFFFF" stroke="#000000" stroke-width="7.9565" stroke-linecap="round" stroke-linejoin="round" stroke-miterlimit="10" cx="255.3" cy="256.2" r="139.1"/>
	
		<circle fill="#F76746" stroke="#000000" stroke-width="7.9565" stroke-linecap="round" stroke-linejoin="round" stroke-miterlimit="10" cx="255.3" cy="256.2" r="95.5"/>
	
		<path fill="#FFFFFF" stroke="#000000" stroke-width="7.9565" stroke-linecap="round" stroke-linejoin="round" stroke-miterlimit="10" d="
		M55.9,189.2v11.3c0,8.3,4.5,15.5,11.1,19.3c2.7,1.6,4.4,4.4,4.4,7.5l-1.9,138c-0.1,4.9,3.9,8.9,8.8,8.9s8.9-4,8.8-8.9l-1.9-138
		c0-3.1,1.7-6,4.4-7.5c6.7-3.9,11.1-11.1,11.1-19.3v-11.3H55.9z"/>
	
		<line fill="none" stroke="#000000" stroke-width="7.9565" stroke-linecap="round" stroke-linejoin="round" stroke-miterlimit="10" x1="78.3" y1="189.2" x2="78.3" y2="145.4"/>
	
		<line fill="none" stroke="#000000" stroke-width="7.9565" stroke-linecap="round" stroke-linejoin="round" stroke-miterlimit="10" x1="55.9" y1="189.2" x2="55.9" y2="145.4"/>
	
		<line fill="none" stroke="#000000" stroke-width="7.9565" stroke-linecap="round" stroke-linejoin="round" stroke-miterlimit="10" x1="100.7" y1="189.2" x2="100.7" y2="145.4"/>
</g>
</svg>
