<?xml version="1.0" encoding="utf-8"?>
<!-- Generator: Adobe Illustrator 25.0.1, SVG Export Plug-In . SVG Version: 6.00 Build 0)  -->
<svg version="1.1" id="Layer_1" xmlns="http://www.w3.org/2000/svg" xmlns:xlink="http://www.w3.org/1999/xlink" x="0px" y="0px"
	 viewBox="0 0 512 512" enable-background="new 0 0 512 512" xml:space="preserve">
<g>
	
		<circle fill="#FFFFFF" stroke="#000000" stroke-width="7.9565" stroke-linecap="round" stroke-linejoin="round" stroke-miterlimit="10" cx="255" cy="256.2" r="198.9"/>
	<circle fill="#F76746" cx="255" cy="256.2" r="134.1"/>
	
		<path fill="none" stroke="#000000" stroke-width="7.9565" stroke-linecap="round" stroke-linejoin="round" stroke-miterlimit="10" d="
		M245.5,122.4c-69.6,4.9-124.6,62.9-124.6,133.8c0,5.7,0.4,11.2,1,16.7"/>
	
		<path fill="none" stroke="#000000" stroke-width="7.9565" stroke-linecap="round" stroke-linejoin="round" stroke-miterlimit="10" d="
		M374.7,195.6c-7.4-14.6-17.5-27.7-29.5-38.7"/>
	
		<path fill="none" stroke="#000000" stroke-width="7.9565" stroke-linecap="round" stroke-linejoin="round" stroke-miterlimit="10" d="
		M242.7,389.8c4.1,0.4,8.2,0.6,12.3,0.6c74.1,0,134.1-60,134.1-134.1c0-3.7-0.2-7.5-0.5-11.1"/>
	
		<path fill="none" stroke="#000000" stroke-width="7.9565" stroke-linecap="round" stroke-linejoin="round" stroke-miterlimit="10" d="
		M141.7,328c10.8,17.1,25.4,31.5,42.5,42.2"/>
	
		<path fill="#FFFFFF" stroke="#000000" stroke-width="7.9565" stroke-linecap="round" stroke-linejoin="round" stroke-miterlimit="10" d="
		M151.4,442.5L151.4,442.5c6.2,6.2,16.2,6.2,22.4,0l78.6-78.6L230,341.5l-78.6,78.6C145.2,426.3,145.2,436.4,151.4,442.5z"/>
	
		<path fill="#FFFFFF" stroke="#000000" stroke-width="7.9565" stroke-linecap="round" stroke-linejoin="round" stroke-miterlimit="10" d="
		M252.4,363.9c0,0-33-33-33-33c14-17.1,28.8-33.5,45.1-48.4c16-14.6,33.9-26.7,52.2-38.4c29.5-18.8,59.6-34.8,94.4-41.1l2.8-0.5
		L252.4,363.9z"/>
	
		<path fill="#FFFFFF" stroke="#000000" stroke-width="7.9565" stroke-linecap="round" stroke-linejoin="round" stroke-miterlimit="10" d="
		M343.1,129.3L343.1,129.3c-2.7-2.7-7.1-2.7-9.7,0l-42.8,42.8c-2.8,2.8-7.3,2.8-10.1,0c-2.8-2.8-2.8-7.3,0-10.1l42.8-42.8
		c2.7-2.7,2.7-7.1,0-9.7l-0.1-0.1c-2.7-2.7-7.1-2.7-9.7,0l-42.8,42.8c-2.8,2.8-7.3,2.8-10.1,0c-2.8-2.8-2.8-7.3,0-10.1l42.8-42.8
		c2.7-2.7,2.7-7.1,0-9.7l0,0c-2.7-2.7-7.1-2.7-9.7,0L237,146.2c-11,11-13.2,27.6-6.3,40.8l-161,156.6c-5.5,5.3-5.6,14.1-0.1,19.6
		c5.4,5.4,14.2,5.4,19.6-0.1l156.6-161c13.2,6.8,29.8,4.7,40.8-6.3l56.6-56.6C345.8,136.3,345.8,132,343.1,129.3z"/>
</g>
</svg>
