<?xml version="1.0" encoding="utf-8"?>
<!-- Generator: Adobe Illustrator 25.0.1, SVG Export Plug-In . SVG Version: 6.00 Build 0)  -->
<svg version="1.1" id="Layer_1" xmlns="http://www.w3.org/2000/svg" xmlns:xlink="http://www.w3.org/1999/xlink" x="0px" y="0px"
	 viewBox="0 0 512 512" enable-background="new 0 0 512 512" xml:space="preserve">
<g>
	<polygon fill="#FFFFFF" points="352.4,438.5 157.7,438.5 139.2,119.8 370.8,119.8 	"/>
	
		<polyline fill="none" stroke="#000000" stroke-width="7.9565" stroke-linecap="round" stroke-linejoin="round" stroke-miterlimit="10" points="
		359.6,313 352.4,438.5 157.7,438.5 150.4,313 	"/>
	
		<polyline fill="none" stroke="#000000" stroke-width="7.9565" stroke-linecap="round" stroke-linejoin="round" stroke-miterlimit="10" points="
		145.9,234.6 139.2,119.8 370.8,119.8 364.2,234.6 	"/>
	
		<rect x="160.1" y="57.6" fill="#F76746" stroke="#000000" stroke-width="7.9565" stroke-linecap="round" stroke-linejoin="round" stroke-miterlimit="10" width="19.4" height="18.8"/>
	
		<rect x="122.6" y="86.5" fill="#FFFFFF" stroke="#000000" stroke-width="7.9565" stroke-linecap="round" stroke-linejoin="round" stroke-miterlimit="10" width="264.9" height="33.3"/>
	
		<polygon fill="#F76746" stroke="#000000" stroke-width="7.9565" stroke-linecap="round" stroke-linejoin="round" stroke-miterlimit="10" points="
		362.5,57.6 147.6,74 147.6,86.5 362.5,86.5 	"/>
	
		<path fill="#FFFFFF" stroke="#000000" stroke-width="7.9565" stroke-linecap="round" stroke-linejoin="round" stroke-miterlimit="10" d="
		M352.2,76.2"/>
	
		<path fill="#FFFFFF" stroke="#000000" stroke-width="7.9565" stroke-linecap="round" stroke-linejoin="round" stroke-miterlimit="10" d="
		M147.6,86.5"/>
	
		<path fill="#FFFFFF" stroke="#000000" stroke-width="7.9565" stroke-linecap="round" stroke-linejoin="round" stroke-miterlimit="10" d="
		M280.4,63.9"/>
	
		<path fill="#FFFFFF" stroke="#000000" stroke-width="7.9565" stroke-linecap="round" stroke-linejoin="round" stroke-miterlimit="10" d="
		M321.5,60.7"/>
	
		<path fill="#FFFFFF" stroke="#000000" stroke-width="7.9565" stroke-linecap="round" stroke-linejoin="round" stroke-miterlimit="10" d="
		M302.5,86.5"/>
	
		<rect x="157" y="430.9" fill="#FFFFFF" stroke="#000000" stroke-width="7.9565" stroke-linecap="round" stroke-linejoin="round" stroke-miterlimit="10" width="196" height="24"/>
	
		<path fill="#F76746" stroke="#000000" stroke-width="7.9565" stroke-linecap="round" stroke-linejoin="round" stroke-miterlimit="10" d="
		M365.4,249.5h-57c-8.7-20.3-28.8-34.6-52.4-34.6s-43.7,14.3-52.4,34.6h-58.9l2.7,46.1h57c9,19.5,28.7,33,51.6,33s42.6-13.5,51.6-33
		h55.1L365.4,249.5z"/>
	<g>
		
			<path fill="#FFFFFF" stroke="#000000" stroke-width="7.9565" stroke-linecap="round" stroke-linejoin="round" stroke-miterlimit="10" d="
			M228.3,281.5c0,15.3,12.4,27.6,27.6,27.6c15.3,0,27.6-12.4,27.6-27.6v-19.3c0-15.3-12.4-27.6-27.6-27.6
			c-15.3,0-27.6,12.4-27.6,27.6L228.3,281.5z"/>
		
			<line fill="none" stroke="#000000" stroke-width="7.9565" stroke-linecap="round" stroke-linejoin="round" stroke-miterlimit="10" x1="256" y1="234.6" x2="256" y2="309.2"/>
	</g>
</g>
</svg>
