<?xml version="1.0" encoding="utf-8"?>
<!-- Generator: Adobe Illustrator 25.0.1, SVG Export Plug-In . SVG Version: 6.00 Build 0)  -->
<svg version="1.1" id="Layer_1" xmlns="http://www.w3.org/2000/svg" xmlns:xlink="http://www.w3.org/1999/xlink" x="0px" y="0px"
	 viewBox="0 0 512 512" enable-background="new 0 0 512 512" xml:space="preserve">
<g>
	<rect x="116.3" y="57.3" fill="#F76746" width="279.9" height="397.8"/>
	
		<line fill="none" stroke="#000000" stroke-width="7.9565" stroke-linecap="round" stroke-linejoin="round" stroke-miterlimit="10" x1="116.3" y1="151.7" x2="116.3" y2="121.9"/>
	
		<line fill="none" stroke="#000000" stroke-width="7.9565" stroke-linecap="round" stroke-linejoin="round" stroke-miterlimit="10" x1="116.3" y1="230.3" x2="116.3" y2="200.8"/>
	
		<line fill="none" stroke="#000000" stroke-width="7.9565" stroke-linecap="round" stroke-linejoin="round" stroke-miterlimit="10" x1="116.3" y1="310" x2="116.3" y2="281.9"/>
	
		<line fill="none" stroke="#000000" stroke-width="7.9565" stroke-linecap="round" stroke-linejoin="round" stroke-miterlimit="10" x1="116.3" y1="387.8" x2="116.3" y2="360.6"/>
	
		<polyline fill="none" stroke="#000000" stroke-width="7.9565" stroke-linecap="round" stroke-linejoin="round" stroke-miterlimit="10" points="
		116.3,73.6 116.3,57.3 396.2,57.3 396.2,455.1 116.3,455.1 116.3,438.3 	"/>
	<rect x="135.3" y="57.3" fill="#FFFFFF" width="279.9" height="397.8"/>
	
		<line fill="none" stroke="#000000" stroke-width="7.9565" stroke-linecap="round" stroke-linejoin="round" stroke-miterlimit="10" x1="135.3" y1="150.5" x2="135.3" y2="123.4"/>
	
		<line fill="none" stroke="#000000" stroke-width="7.9565" stroke-linecap="round" stroke-linejoin="round" stroke-miterlimit="10" x1="135.3" y1="230.1" x2="135.3" y2="202.4"/>
	
		<line fill="none" stroke="#000000" stroke-width="7.9565" stroke-linecap="round" stroke-linejoin="round" stroke-miterlimit="10" x1="135.3" y1="310.3" x2="135.3" y2="282"/>
	
		<line fill="none" stroke="#000000" stroke-width="7.9565" stroke-linecap="round" stroke-linejoin="round" stroke-miterlimit="10" x1="135.3" y1="387.5" x2="135.3" y2="361"/>
	
		<polyline fill="none" stroke="#000000" stroke-width="7.9565" stroke-linecap="round" stroke-linejoin="round" stroke-miterlimit="10" points="
		135.3,73.3 135.3,57.3 415.2,57.3 415.2,455.1 135.3,455.1 135.3,438.2 	"/>
	
		<path fill="#FFFFFF" stroke="#000000" stroke-width="7.9565" stroke-linecap="round" stroke-linejoin="round" stroke-miterlimit="10" d="
		M140.9,110.6h-34.2c-6.5,0-11.8-5.3-11.8-11.8v0c0-6.5,5.3-11.8,11.8-11.8h34.2c6.5,0,11.8,5.3,11.8,11.8v0
		C152.7,105.3,147.4,110.6,140.9,110.6z"/>
	
		<path fill="#FFFFFF" stroke="#000000" stroke-width="7.9565" stroke-linecap="round" stroke-linejoin="round" stroke-miterlimit="10" d="
		M140.9,189.3h-34.2c-6.5,0-11.8-5.3-11.8-11.8v0c0-6.5,5.3-11.8,11.8-11.8h34.2c6.5,0,11.8,5.3,11.8,11.8v0
		C152.7,184,147.4,189.3,140.9,189.3z"/>
	
		<path fill="#FFFFFF" stroke="#000000" stroke-width="7.9565" stroke-linecap="round" stroke-linejoin="round" stroke-miterlimit="10" d="
		M140.9,268h-34.2c-6.5,0-11.8-5.3-11.8-11.8l0,0c0-6.5,5.3-11.8,11.8-11.8h34.2c6.5,0,11.8,5.3,11.8,11.8l0,0
		C152.7,262.7,147.4,268,140.9,268z"/>
	
		<path fill="#FFFFFF" stroke="#000000" stroke-width="7.9565" stroke-linecap="round" stroke-linejoin="round" stroke-miterlimit="10" d="
		M140.9,346.7h-34.2c-6.5,0-11.8-5.3-11.8-11.8v0c0-6.5,5.3-11.8,11.8-11.8h34.2c6.5,0,11.8,5.3,11.8,11.8v0
		C152.7,341.4,147.4,346.7,140.9,346.7z"/>
	
		<path fill="#FFFFFF" stroke="#000000" stroke-width="7.9565" stroke-linecap="round" stroke-linejoin="round" stroke-miterlimit="10" d="
		M140.9,425.4h-34.2c-6.5,0-11.8-5.3-11.8-11.8v0c0-6.5,5.3-11.8,11.8-11.8h34.2c6.5,0,11.8,5.3,11.8,11.8v0
		C152.7,420.1,147.4,425.4,140.9,425.4z"/>
	
		<circle fill="#FFFFFF" stroke="#000000" stroke-width="7.9565" stroke-linecap="round" stroke-linejoin="round" stroke-miterlimit="10" cx="275.2" cy="140.4" r="12.8"/>
	
		<path fill="#FFFFFF" stroke="#000000" stroke-width="7.9565" stroke-linecap="round" stroke-linejoin="round" stroke-miterlimit="10" d="
		M358.3,241.6H192.2c-3.5,0-6.3-2.8-6.3-6.3v-4.6c0-3.5,2.8-6.3,6.3-6.3h166.1c3.5,0,6.3,2.8,6.3,6.3v4.6
		C364.6,238.8,361.8,241.6,358.3,241.6z"/>
	
		<path fill="#FFFFFF" stroke="#000000" stroke-width="7.9565" stroke-linecap="round" stroke-linejoin="round" stroke-miterlimit="10" d="
		M275.2,141.6c-45.7,0-82.7,37-82.7,82.7H358C358,178.6,320.9,141.6,275.2,141.6z"/>
	
		<line fill="none" stroke="#000000" stroke-width="7.9565" stroke-linecap="round" stroke-linejoin="round" stroke-miterlimit="10" x1="202.7" y1="312.7" x2="352.5" y2="312.7"/>
	
		<line fill="none" stroke="#000000" stroke-width="7.9565" stroke-linecap="round" stroke-linejoin="round" stroke-miterlimit="10" x1="202.7" y1="339.9" x2="352.5" y2="339.9"/>
	
		<line fill="none" stroke="#000000" stroke-width="7.9565" stroke-linecap="round" stroke-linejoin="round" stroke-miterlimit="10" x1="256.9" y1="367" x2="298.2" y2="367"/>
</g>
</svg>
