<?xml version="1.0" encoding="utf-8"?>
<!-- Generator: Adobe Illustrator 25.0.1, SVG Export Plug-In . SVG Version: 6.00 Build 0)  -->
<svg version="1.1" id="Layer_1" xmlns="http://www.w3.org/2000/svg" xmlns:xlink="http://www.w3.org/1999/xlink" x="0px" y="0px"
	 viewBox="0 0 512 512" enable-background="new 0 0 512 512" xml:space="preserve">
<g>
	<g>
		
			<path fill="#FFFFFF" stroke="#000000" stroke-width="7.9565" stroke-linecap="round" stroke-linejoin="round" stroke-miterlimit="10" d="
			M106.4,279.4c-2.8,0-5.5-1.5-6.9-4l-11.2-19.9c-2.8-4.9-7.3-8.5-12.6-10.1l-13.8-4.1c-4.2-1.2-6.6-5.7-5.4-9.9
			c1.2-4.2,5.7-6.6,9.9-5.4l13.8,4.1c9.4,2.8,17.2,9,22,17.5l11.2,19.9c2.2,3.8,0.8,8.7-3,10.8C109.1,279,107.7,279.4,106.4,279.4z"
			/>
	</g>
	<g>
		
			<path fill="#FFFFFF" stroke="#000000" stroke-width="7.9565" stroke-linecap="round" stroke-linejoin="round" stroke-miterlimit="10" d="
			M403.7,279.4c2.8,0,5.5-1.5,6.9-4l11.2-19.9c2.8-4.9,7.3-8.5,12.6-10.1l13.8-4.1c4.2-1.2,6.6-5.7,5.4-9.9
			c-1.2-4.2-5.7-6.6-9.9-5.4l-13.8,4.1c-9.4,2.8-17.2,9-22,17.5l-11.2,19.9c-2.2,3.8-0.8,8.7,3,10.8
			C401,279,402.3,279.4,403.7,279.4z"/>
	</g>
	
		<path fill="#FFFFFF" stroke="#000000" stroke-width="7.9565" stroke-linecap="round" stroke-linejoin="round" stroke-miterlimit="10" d="
		M408.3,207.7H101.8v175.5c0,17,13.7,30.7,30.7,30.7h245c17,0,30.7-13.7,30.7-30.7V207.7z"/>
	
		<path fill="#F76746" stroke="#000000" stroke-width="7.9565" stroke-linecap="round" stroke-linejoin="round" stroke-miterlimit="10" d="
		M353,106.6L84.6,167c-8.4,1.9-13.7,10.3-11.8,18.7l1.1,4.8l299-67.3l-1.1-4.8C369.8,110,361.5,104.7,353,106.6z"/>
	
		<line fill="none" stroke="#000000" stroke-width="7.9565" stroke-linecap="round" stroke-linejoin="round" stroke-miterlimit="10" x1="218.8" y1="136.8" x2="215.8" y2="123.3"/>
	
		<path fill="#FFFFFF" stroke="#000000" stroke-width="7.9565" stroke-linecap="round" stroke-linejoin="round" stroke-miterlimit="10" d="
		M242.3,117.3l-53.1,12c-5.1,1.2-10.2-2.1-11.4-7.2v0c-1.2-5.1,2.1-10.2,7.2-11.4l53.1-12c5.1-1.2,10.2,2.1,11.4,7.2v0
		C250.7,111.1,247.4,116.2,242.3,117.3z"/>
	
		<circle fill="#FFFFFF" stroke="#000000" stroke-width="7.9565" stroke-linecap="round" stroke-linejoin="round" stroke-miterlimit="10" cx="373" cy="162.9" r="16.3"/>
	
		<circle fill="#FFFFFF" stroke="#000000" stroke-width="7.9565" stroke-linecap="round" stroke-linejoin="round" stroke-miterlimit="10" cx="301.7" cy="176.6" r="11.8"/>
	
		<circle fill="#FFFFFF" stroke="#000000" stroke-width="7.9565" stroke-linecap="round" stroke-linejoin="round" stroke-miterlimit="10" cx="412.7" cy="120.8" r="12.1"/>
</g>
</svg>
