<?xml version="1.0" encoding="utf-8"?>
<!-- Generator: Adobe Illustrator 25.0.1, SVG Export Plug-In . SVG Version: 6.00 Build 0)  -->
<svg version="1.1" id="Layer_1" xmlns="http://www.w3.org/2000/svg" xmlns:xlink="http://www.w3.org/1999/xlink" x="0px" y="0px"
	 viewBox="0 0 512 512" enable-background="new 0 0 512 512" xml:space="preserve">
<g>
	
		<path fill="#FFFFFF" stroke="#000000" stroke-width="7.9565" stroke-linecap="round" stroke-linejoin="round" stroke-miterlimit="10" d="
		M239.2,422.4h-8.8c-96.2,0-174.2-78-174.2-174.2v0h357.3v0C413.4,344.4,335.4,422.4,239.2,422.4z"/>
	
		<path fill="#F76746" stroke="#000000" stroke-width="7.9565" stroke-linecap="round" stroke-linejoin="round" stroke-miterlimit="10" d="
		M321.1,400.9H148.4v9.9c0,7.3,5.9,13.2,13.2,13.2H308c7.3,0,13.2-5.9,13.2-13.2V400.9z"/>
	
		<path fill="#FFFFFF" stroke="#000000" stroke-width="7.9565" stroke-linecap="round" stroke-linejoin="round" stroke-miterlimit="10" d="
		M271.5,156.4h79l81.7-65.3c2.1-1.7,4.8-2.6,7.5-2.6h2.2c6.6,0,12,5.4,12,12c0,3.3-1.3,6.4-3.7,8.7c-11.5,11-23,21.9-34.4,32.9
		c-10.9,10.4-22.2,20.3-33,30.8c-9.9,9.6-17.7,19.1-31.4,23.6c-23.5,7.7-50.5,7.4-74-0.1c-8.7-2.8-17-7-23.7-13.3
		c-7-6.6-10.8-16.8-10.9-26.4L271.5,156.4z"/>
	
		<path fill="none" stroke="#000000" stroke-width="7.9565" stroke-linecap="round" stroke-linejoin="round" stroke-miterlimit="10" d="
		M145.7,217.8l-5.1-31.6c-3.1-12.6-0.4-25.9,7.2-36.4l0,0c8.3-11.4,10.6-26.1,6.3-39.6l-7-21.7"/>
	
		<path fill="none" stroke="#000000" stroke-width="7.9565" stroke-linecap="round" stroke-linejoin="round" stroke-miterlimit="10" d="
		M108.1,200.3l-3.7-23c-2.2-9.2-0.3-18.9,5.2-26.6l0,0c6-8.3,7.7-19.1,4.6-28.9l-5.1-15.8"/>
	
		<path fill="none" stroke="#000000" stroke-width="7.9565" stroke-linecap="round" stroke-linejoin="round" stroke-miterlimit="10" d="
		M186.2,200.3l-3.7-23c-2.2-9.2-0.3-18.9,5.2-26.6l0,0c6-8.3,7.7-19.1,4.6-28.9l-5.1-15.8"/>
</g>
</svg>
