<?xml version="1.0" encoding="utf-8"?>
<!-- Generator: Adobe Illustrator 25.0.1, SVG Export Plug-In . SVG Version: 6.00 Build 0)  -->
<svg version="1.1" id="Layer_1" xmlns="http://www.w3.org/2000/svg" xmlns:xlink="http://www.w3.org/1999/xlink" x="0px" y="0px"
	 viewBox="0 0 512 512" enable-background="new 0 0 512 512" xml:space="preserve">
<g>
	<g>
		<rect x="235.9" y="118.9" fill="#FFFFFF" width="33.7" height="241.8"/>
		
			<polyline fill="none" stroke="#000000" stroke-width="7.9565" stroke-linecap="round" stroke-linejoin="round" stroke-miterlimit="10" points="
			269.6,214.5 269.6,118.9 235.9,118.9 235.9,360.7 269.6,360.7 269.6,262.2 		"/>
		<rect x="269.6" y="96.4" fill="#FFFFFF" width="33.7" height="241.8"/>
		
			<polyline fill="none" stroke="#000000" stroke-width="7.9565" stroke-linecap="round" stroke-linejoin="round" stroke-miterlimit="10" points="
			303.3,228.5 303.3,96.4 269.6,96.4 269.6,220 		"/>
		<rect x="303.3" y="141.3" fill="#FFFFFF" width="33.7" height="241.8"/>
		
			<polyline fill="none" stroke="#000000" stroke-width="7.9565" stroke-linecap="round" stroke-linejoin="round" stroke-miterlimit="10" points="
			337,383.1 337,141.3 303.3,141.3 303.3,229.2 		"/>
		
			<rect x="337" y="80.7" fill="#FFFFFF" stroke="#000000" stroke-width="7.9565" stroke-linecap="round" stroke-linejoin="round" stroke-miterlimit="10" width="33.7" height="241.8"/>
		
			<rect x="370.7" y="103.1" fill="#FFFFFF" stroke="#000000" stroke-width="7.9565" stroke-linecap="round" stroke-linejoin="round" stroke-miterlimit="10" width="33.7" height="241.8"/>
		
			<rect x="404.4" y="148.1" fill="#FFFFFF" stroke="#000000" stroke-width="7.9565" stroke-linecap="round" stroke-linejoin="round" stroke-miterlimit="10" width="33.7" height="223.2"/>
		<path fill="#F76746" d="M416.2,201.2c-10.6,35.5-43.5,61.4-82.5,61.4s-71.9-25.9-82.5-61.4h-37.8l22.5,230.5h195.6l22.5-230.5
			H416.2z"/>
		
			<path fill="none" stroke="#000000" stroke-width="7.9565" stroke-linecap="round" stroke-linejoin="round" stroke-miterlimit="10" d="
			M445.1,292.3l8.9-91.1h-37.8c-10.6,35.5-43.5,61.4-82.5,61.4"/>
		
			<polyline fill="none" stroke="#000000" stroke-width="7.9565" stroke-linecap="round" stroke-linejoin="round" stroke-miterlimit="10" points="
			319.8,431.8 431.5,431.8 433.9,406.6 		"/>
		
			<path fill="none" stroke="#000000" stroke-width="7.9565" stroke-linecap="round" stroke-linejoin="round" stroke-miterlimit="10" d="
			M259.4,220.1c-3.5-5.9-6.2-12.2-8.2-18.9h-37.8l22.5,230.5"/>
		<polygon fill="#FFFFFF" points="437.7,391 445.9,306.9 221.5,306.9 229.7,391 		"/>
		
			<polyline fill="none" stroke="#000000" stroke-width="7.9565" stroke-linecap="round" stroke-linejoin="round" stroke-miterlimit="10" points="
			335.3,391 437.7,391 445.9,306.9 335.3,306.9 		"/>
	</g>
	<g>
		<path fill="#FFFFFF" d="M282.6,431.8H102.1c-20.5,0-37-16.6-37-37v-13.4h254.5v13.4C319.6,415.2,303.1,431.8,282.6,431.8z"/>
		
			<path fill="none" stroke="#000000" stroke-width="7.9565" stroke-linecap="round" stroke-linejoin="round" stroke-miterlimit="10" d="
			M278.8,381.3h40.9v13.4c0,20.5-16.6,37-37,37H102.1c-20.5,0-37-16.6-37-37v-13.4h157.7"/>
		<path fill="#F76746" d="M305.7,315.3H79.1c-12.7,0-22.9,10.3-22.9,22.9v0c0,12.7,10.3,22.9,22.9,22.9h226.6
			c12.7,0,22.9-10.3,22.9-22.9v0C328.6,325.5,318.4,315.3,305.7,315.3z"/>
		
			<path fill="none" stroke="#000000" stroke-width="7.9565" stroke-linecap="round" stroke-linejoin="round" stroke-miterlimit="10" d="
			M288.9,361.1h16.8c12.7,0,22.9-10.3,22.9-22.9v0c0-12.7-10.3-22.9-22.9-22.9H79.1c-12.7,0-22.9,10.3-22.9,22.9v0
			c0,12.7,10.3,22.9,22.9,22.9H187"/>
		<path fill="#FFFFFF" d="M309.5,361.1H75.2c-5.6,0-10.1,4.5-10.1,10.1v0c0,5.6,4.5,10.1,10.1,10.1h234.3c5.6,0,10.1-4.5,10.1-10.1
			v0C319.6,365.7,315.1,361.1,309.5,361.1z"/>
		
			<path fill="none" stroke="#000000" stroke-width="7.9565" stroke-linecap="round" stroke-linejoin="round" stroke-miterlimit="10" d="
			M276.5,381.3h33c5.6,0,10.1-4.5,10.1-10.1v0c0-5.6-4.5-10.1-10.1-10.1h-21.8"/>
		
			<path fill="none" stroke="#000000" stroke-width="7.9565" stroke-linecap="round" stroke-linejoin="round" stroke-miterlimit="10" d="
			M188.8,361.1H75.2c-5.6,0-10.1,4.5-10.1,10.1v0c0,5.6,4.5,10.1,10.1,10.1h150.9"/>
		
			<polygon fill="#FFFFFF" stroke="#000000" stroke-width="7.9565" stroke-linecap="round" stroke-linejoin="round" stroke-miterlimit="10" points="
			129.7,317.5 302.4,317.5 258.5,385.8 		"/>
		
			<path fill="#FFFFFF" stroke="#000000" stroke-width="7.9565" stroke-linecap="round" stroke-linejoin="round" stroke-miterlimit="10" d="
			M291,274.7c-10.5,0-19.6,5.2-24.6,12.9c-5-7.7-14.2-12.9-24.6-12.9s-19.6,5.2-24.6,12.9c-5-7.7-14.2-12.9-24.6-12.9
			s-19.6,5.2-24.6,12.9c-5-7.7-14.2-12.9-24.6-12.9s-19.6,5.2-24.6,12.9c-5-7.7-14.2-12.9-24.6-12.9c-15.8,0-28.7,11.8-28.7,26.3
			c0,14.5,12.8,26.3,28.7,26.3c6.7,0,12.9-2.1,17.7-5.7c4.1-3,9.7-3,13.8,0c4.9,3.5,11,5.7,17.7,5.7s12.9-2.1,17.7-5.7
			c4.1-3,9.7-3,13.8,0c4.9,3.5,11,5.7,17.7,5.7s12.9-2.1,17.7-5.7c4.1-3,9.7-3,13.8,0c4.9,3.5,11,5.7,17.7,5.7s12.9-2.1,17.7-5.7
			c4.1-3,9.7-3,13.8,0c4.9,3.5,11,5.7,17.7,5.7c15.8,0,28.7-11.8,28.7-26.3C319.7,286.5,306.8,274.7,291,274.7z"/>
		
			<path fill="#FFFFFF" stroke="#000000" stroke-width="7.9565" stroke-linecap="round" stroke-linejoin="round" stroke-miterlimit="10" d="
			M274,234.8H110.8c-24.8,0-45.8,18.4-48.9,43.1L59.8,294c-0.7,5.8,3.8,10.9,9.6,10.9h246c5.8,0,10.3-5.1,9.6-10.9l-2.1-16.1
			C319.8,253.2,298.8,234.8,274,234.8z"/>
	</g>
</g>
</svg>
