<?xml version="1.0" encoding="utf-8"?>
<!-- Generator: Adobe Illustrator 25.0.1, SVG Export Plug-In . SVG Version: 6.00 Build 0)  -->
<svg version="1.1" id="Layer_1" xmlns="http://www.w3.org/2000/svg" xmlns:xlink="http://www.w3.org/1999/xlink" x="0px" y="0px"
	 viewBox="0 0 512 512" enable-background="new 0 0 512 512" xml:space="preserve">
<g>
	
		<path fill="#FFFFFF" stroke="#000000" stroke-width="7.9565" stroke-linecap="round" stroke-linejoin="round" stroke-miterlimit="10" d="
		M320.7,356.9L320.7,356.9c-27.9,0-49.8-23.7-47.7-51.5l4-51.8h87.4l4,51.8C370.6,333.2,348.6,356.9,320.7,356.9z"/>
	
		<line fill="#FFFFFF" stroke="#000000" stroke-width="7.9565" stroke-linecap="round" stroke-linejoin="round" stroke-miterlimit="10" x1="320.7" y1="455.1" x2="320.7" y2="356.9"/>
	
		<line fill="#FFFFFF" stroke="#000000" stroke-width="7.9565" stroke-linecap="round" stroke-linejoin="round" stroke-miterlimit="10" x1="293" y1="455.1" x2="348.4" y2="455.1"/>
	
		<path fill="#FFFFFF" stroke="#000000" stroke-width="7.9565" stroke-linecap="round" stroke-linejoin="round" stroke-miterlimit="10" d="
		M213.2,130.3v-73h-36.3v73c0,28.8-7.1,57.3-20.7,82.7l-0.1,0.3c-9.6,17.9-14.6,37.9-14.6,58.2v183.6h107.1V271.5
		c0-20.3-5-40.3-14.6-58.2l-0.1-0.3C220.3,187.6,213.2,159.2,213.2,130.3z"/>
	
		<rect x="141.5" y="305.3" fill="#F76746" stroke="#000000" stroke-width="7.9565" stroke-linecap="round" stroke-linejoin="round" stroke-miterlimit="10" width="74.4" height="102.3"/>
	
		<rect x="136.9" y="328.5" transform="matrix(-1.836970e-16 1 -1 -1.836970e-16 525.8525 186.9763)" fill="#FFFFFF" stroke="#000000" stroke-width="7.9565" stroke-linecap="round" stroke-linejoin="round" stroke-miterlimit="10" width="65.2" height="55.9"/>
	
		<path fill="#F76746" stroke="#000000" stroke-width="7.9565" stroke-linecap="round" stroke-linejoin="round" stroke-miterlimit="10" d="
		M367.3,291.2h-93.2l-1.1,14.3c-2.1,27.8,19.8,51.5,47.7,51.5h0c27.9,0,49.8-23.7,47.7-51.5L367.3,291.2z"/>
	
		<line fill="none" stroke="#000000" stroke-width="7.9565" stroke-linecap="round" stroke-linejoin="round" stroke-miterlimit="10" x1="141.5" y1="340.5" x2="175" y2="340.5"/>
	
		<line fill="none" stroke="#000000" stroke-width="7.9565" stroke-linecap="round" stroke-linejoin="round" stroke-miterlimit="10" x1="141.5" y1="356.4" x2="175" y2="356.4"/>
	
		<line fill="none" stroke="#000000" stroke-width="7.9565" stroke-linecap="round" stroke-linejoin="round" stroke-miterlimit="10" x1="141.5" y1="372.3" x2="161.8" y2="372.3"/>
	
		<rect x="176.9" y="57.3" fill="none" stroke="#000000" stroke-width="7.9565" stroke-linecap="round" stroke-linejoin="round" stroke-miterlimit="10" width="36.3" height="53.3"/>
	
		<rect x="176.9" y="110.6" fill="#F76746" stroke="#000000" stroke-width="7.9565" stroke-linecap="round" stroke-linejoin="round" stroke-miterlimit="10" width="36.3" height="16.1"/>
</g>
</svg>
