<?xml version="1.0" encoding="utf-8"?>
<!-- Generator: Adobe Illustrator 25.0.1, SVG Export Plug-In . SVG Version: 6.00 Build 0)  -->
<svg version="1.1" id="Layer_1" xmlns="http://www.w3.org/2000/svg" xmlns:xlink="http://www.w3.org/1999/xlink" x="0px" y="0px"
	 viewBox="0 0 512 512" enable-background="new 0 0 512 512" xml:space="preserve">
<g>
	<rect x="95.7" y="72.3" fill="#F76746" width="318.6" height="382.9"/>
	
		<polyline fill="none" stroke="#000000" stroke-width="7.9565" stroke-linecap="round" stroke-linejoin="round" stroke-miterlimit="10" points="
		410.2,72.3 414.3,72.3 414.3,455.1 95.7,455.1 95.7,72.3 99.9,72.3 	"/>
	<g>
		
			<rect x="112" y="57.3" fill="#FFFFFF" stroke="#000000" stroke-width="8.035" stroke-linecap="round" stroke-linejoin="round" stroke-miterlimit="10" width="143" height="379.1"/>
		
			<rect x="255" y="57.3" fill="#FFFFFF" stroke="#000000" stroke-width="8.035" stroke-linecap="round" stroke-linejoin="round" stroke-miterlimit="10" width="143" height="379.1"/>
	</g>
	
		<line fill="none" stroke="#000000" stroke-width="8.0817" stroke-linecap="round" stroke-linejoin="round" stroke-miterlimit="10" x1="255" y1="455.1" x2="255" y2="449.7"/>
	<g>
		
			<path fill="none" stroke="#000000" stroke-width="7.9565" stroke-linecap="round" stroke-linejoin="round" stroke-miterlimit="10" d="
			M323.3,158V189c0,11.6-7.8,16.4-17.5,16.4h0c-9.7,0-17.5-4.9-17.5-16.4V158"/>
		
			<line fill="#FFFFFF" stroke="#000000" stroke-width="7.9565" stroke-linecap="round" stroke-linejoin="round" stroke-miterlimit="10" x1="305.8" y1="209.9" x2="305.8" y2="158"/>
		
			<line fill="#FFFFFF" stroke="#000000" stroke-width="7.9565" stroke-linecap="round" stroke-linejoin="round" stroke-miterlimit="10" x1="305.8" y1="316.6" x2="305.8" y2="209.9"/>
	</g>
	<g>
		
			<path fill="#FFFFFF" stroke="#000000" stroke-width="7.9565" stroke-linecap="round" stroke-linejoin="round" stroke-miterlimit="10" d="
			M342,158v107.2l12.1-10.4c4.2-3.6,6.4-8.3,7.7-13.5c1-4.2,1.2-8.6,0.9-12.9l-1.6-20.9C359.6,189.4,353,172.2,342,158L342,158z"/>
		
			<line fill="none" stroke="#000000" stroke-width="7.9565" stroke-linecap="round" stroke-linejoin="round" stroke-miterlimit="10" x1="342" y1="316.6" x2="342" y2="265.1"/>
	</g>
	
		<line fill="none" stroke="#000000" stroke-width="7.9565" stroke-linecap="round" stroke-linejoin="round" stroke-miterlimit="10" x1="135.8" y1="135.1" x2="229.1" y2="135.1"/>
	
		<line fill="none" stroke="#000000" stroke-width="7.9565" stroke-linecap="round" stroke-linejoin="round" stroke-miterlimit="10" x1="216.5" y1="161.7" x2="229.1" y2="161.7"/>
	
		<line fill="none" stroke="#000000" stroke-width="7.9565" stroke-linecap="round" stroke-linejoin="round" stroke-miterlimit="10" x1="135.8" y1="161.7" x2="199.8" y2="161.7"/>
	
		<line fill="none" stroke="#000000" stroke-width="7.9565" stroke-linecap="round" stroke-linejoin="round" stroke-miterlimit="10" x1="216.5" y1="188.2" x2="229.1" y2="188.2"/>
	
		<line fill="none" stroke="#000000" stroke-width="7.9565" stroke-linecap="round" stroke-linejoin="round" stroke-miterlimit="10" x1="135.8" y1="188.2" x2="199.8" y2="188.2"/>
	
		<line fill="none" stroke="#000000" stroke-width="7.9565" stroke-linecap="round" stroke-linejoin="round" stroke-miterlimit="10" x1="216.5" y1="214.7" x2="229.1" y2="214.7"/>
	
		<line fill="none" stroke="#000000" stroke-width="7.9565" stroke-linecap="round" stroke-linejoin="round" stroke-miterlimit="10" x1="135.8" y1="214.7" x2="199.8" y2="214.7"/>
	
		<line fill="none" stroke="#000000" stroke-width="7.9565" stroke-linecap="round" stroke-linejoin="round" stroke-miterlimit="10" x1="135.8" y1="267.7" x2="229.1" y2="267.7"/>
	
		<line fill="none" stroke="#000000" stroke-width="7.9565" stroke-linecap="round" stroke-linejoin="round" stroke-miterlimit="10" x1="216.5" y1="294.3" x2="229.1" y2="294.3"/>
	
		<line fill="none" stroke="#000000" stroke-width="7.9565" stroke-linecap="round" stroke-linejoin="round" stroke-miterlimit="10" x1="135.8" y1="294.3" x2="199.8" y2="294.3"/>
	
		<line fill="none" stroke="#000000" stroke-width="7.9565" stroke-linecap="round" stroke-linejoin="round" stroke-miterlimit="10" x1="216.5" y1="320.8" x2="229.1" y2="320.8"/>
	
		<line fill="none" stroke="#000000" stroke-width="7.9565" stroke-linecap="round" stroke-linejoin="round" stroke-miterlimit="10" x1="135.8" y1="320.8" x2="199.8" y2="320.8"/>
	
		<line fill="none" stroke="#000000" stroke-width="7.9565" stroke-linecap="round" stroke-linejoin="round" stroke-miterlimit="10" x1="216.5" y1="347.3" x2="229.1" y2="347.3"/>
	
		<line fill="none" stroke="#000000" stroke-width="7.9565" stroke-linecap="round" stroke-linejoin="round" stroke-miterlimit="10" x1="135.8" y1="347.3" x2="199.8" y2="347.3"/>
</g>
</svg>
