<?xml version="1.0" encoding="utf-8"?>
<!-- Generator: Adobe Illustrator 25.0.1, SVG Export Plug-In . SVG Version: 6.00 Build 0)  -->
<svg version="1.1" id="Layer_1" xmlns="http://www.w3.org/2000/svg" xmlns:xlink="http://www.w3.org/1999/xlink" x="0px" y="0px"
	 viewBox="0 0 512 512" enable-background="new 0 0 512 512" xml:space="preserve">
<g>
	
		<path fill="#FFFFFF" stroke="#000000" stroke-width="7.9565" stroke-linecap="round" stroke-linejoin="round" stroke-miterlimit="10" d="
		M300,426.4H177.3l0,0c32.7-73.9,24-156.5,4.6-234.9l-20.5-83.1h154.5l-20.5,83.1C276,270,267.3,352.6,300,426.4L300,426.4z"/>
	
		<rect x="177.3" y="426.4" fill="#FFFFFF" stroke="#000000" stroke-width="7.9565" stroke-linecap="round" stroke-linejoin="round" stroke-miterlimit="10" width="122.7" height="28.7"/>
	
		<path fill="#F76746" stroke="#000000" stroke-width="7.9565" stroke-linecap="round" stroke-linejoin="round" stroke-miterlimit="10" d="
		M300.9,169H176.3l5.6,22.6c19.4,78.4,28.1,161-4.6,234.9H300c-32.7-73.9-24-156.5-4.6-234.9L300.9,169z"/>
	
		<rect x="212.2" y="204.2" transform="matrix(0.9461 0.3237 -0.3237 0.9461 85.7253 -63.5578)" fill="#FFFFFF" stroke="#000000" stroke-width="7.9565" stroke-linecap="round" stroke-linejoin="round" stroke-miterlimit="10" width="43.4" height="43.4"/>
	
		<rect x="219.6" y="289.8" transform="matrix(0.975 -0.2221 0.2221 0.975 -62.5824 60.6594)" fill="#FFFFFF" stroke="#000000" stroke-width="7.9565" stroke-linecap="round" stroke-linejoin="round" stroke-miterlimit="10" width="37.7" height="37.7"/>
	
		<line fill="none" stroke="#000000" stroke-width="7.9565" stroke-linecap="round" stroke-linejoin="round" stroke-miterlimit="10" x1="225.9" y1="344" x2="219.1" y2="397.7"/>
	
		<line fill="none" stroke="#000000" stroke-width="7.9565" stroke-linecap="round" stroke-linejoin="round" stroke-miterlimit="10" x1="236.2" y1="262" x2="234.3" y2="277"/>
	
		<line fill="none" stroke="#000000" stroke-width="7.9565" stroke-linecap="round" stroke-linejoin="round" stroke-miterlimit="10" x1="246.2" y1="182.2" x2="244.7" y2="194"/>
	
		<line fill="none" stroke="#000000" stroke-width="7.9565" stroke-linecap="round" stroke-linejoin="round" stroke-miterlimit="10" x1="253.8" y1="122.1" x2="249.5" y2="156"/>
	
		<polyline fill="none" stroke="#000000" stroke-width="7.9565" stroke-linecap="round" stroke-linejoin="round" stroke-miterlimit="10" points="
		348.7,57.3 259.4,77.4 257.2,95 	"/>
</g>
</svg>
