<?xml version="1.0" encoding="utf-8"?>
<!-- Generator: Adobe Illustrator 25.0.1, SVG Export Plug-In . SVG Version: 6.00 Build 0)  -->
<svg version="1.1" id="Layer_1" xmlns="http://www.w3.org/2000/svg" xmlns:xlink="http://www.w3.org/1999/xlink" x="0px" y="0px"
	 viewBox="0 0 512 512" enable-background="new 0 0 512 512" xml:space="preserve">
<g>
	
		<polygon fill="#F76746" stroke="#000000" stroke-width="7.9565" stroke-linecap="round" stroke-linejoin="round" stroke-miterlimit="10" points="
		353.7,239 118.8,239 142.8,449.9 329.7,449.9 	"/>
	
		<line fill="none" stroke="#000000" stroke-width="7.9565" stroke-linecap="round" stroke-linejoin="round" stroke-miterlimit="10" x1="329.7" y1="449.9" x2="236.3" y2="356.5"/>
	
		<line fill="#F76746" stroke="#000000" stroke-width="7.9565" stroke-linecap="round" stroke-linejoin="round" stroke-miterlimit="10" x1="142.8" y1="449.9" x2="353.7" y2="239"/>
	
		<polygon fill="#FFFFFF" stroke="#000000" stroke-width="7.9565" stroke-linecap="round" stroke-linejoin="round" stroke-miterlimit="10" points="
		305.7,326.6 166.9,326.6 118.8,239 353.7,239 	"/>
	
		<line fill="none" stroke="#000000" stroke-width="7.9565" stroke-linecap="round" stroke-linejoin="round" stroke-miterlimit="10" x1="118.8" y1="239" x2="56.1" y2="176.3"/>
	
		<line fill="none" stroke="#000000" stroke-width="7.9565" stroke-linecap="round" stroke-linejoin="round" stroke-miterlimit="10" x1="353.7" y1="239" x2="416.4" y2="176.3"/>
	<polygon fill="#FFFFFF" points="449.9,80.9 129,128.5 127.2,117.5 447,62.5 	"/>
	
		<polyline fill="none" stroke="#000000" stroke-width="7.9565" stroke-linecap="round" stroke-linejoin="round" stroke-miterlimit="10" points="
		134.7,127.6 129,128.5 127.2,117.5 134.8,116.2 	"/>
	
		<polyline fill="none" stroke="#000000" stroke-width="7.9565" stroke-linecap="round" stroke-linejoin="round" stroke-miterlimit="10" points="
		234.9,99 447,62.5 449.9,80.9 234.9,112.8 	"/>
	<g>
		<polygon fill="#FFFFFF" points="145.5,107.6 160,105.4 160,239 145.5,239 		"/>
		<polygon fill="#FFFFFF" points="160,105.4 175.1,103.1 175.1,239 160,239 		"/>
		<polygon fill="#FFFFFF" points="175.1,103.1 190.7,100.7 190.7,239 175.1,239 		"/>
		<polygon fill="#FFFFFF" points="190.7,100.7 206.8,98.2 206.8,239 190.7,239 		"/>
		<polygon fill="#FFFFFF" points="206.8,98.2 223.6,95.6 223.6,239 206.8,239 		"/>
	</g>
	<g>
		
			<polyline fill="none" stroke="#000000" stroke-width="7.9565" stroke-linecap="round" stroke-linejoin="round" stroke-miterlimit="10" points="
			160,177.5 160,239 145.5,239 145.5,178.1 		"/>
		
			<polyline fill="none" stroke="#000000" stroke-width="7.9565" stroke-linecap="round" stroke-linejoin="round" stroke-miterlimit="10" points="
			145.5,141 145.5,107.6 160,105.4 160,141.3 		"/>
		
			<polyline fill="none" stroke="#000000" stroke-width="7.9565" stroke-linecap="round" stroke-linejoin="round" stroke-miterlimit="10" points="
			175.1,177.5 175.1,239 160,239 160,177.5 		"/>
		
			<polyline fill="none" stroke="#000000" stroke-width="7.9565" stroke-linecap="round" stroke-linejoin="round" stroke-miterlimit="10" points="
			160,141.3 160,105.4 175.1,103.1 175.1,140.4 		"/>
		
			<polyline fill="none" stroke="#000000" stroke-width="7.9565" stroke-linecap="round" stroke-linejoin="round" stroke-miterlimit="10" points="
			190.7,177.5 190.7,239 175.1,239 175.1,177.5 		"/>
		
			<polyline fill="none" stroke="#000000" stroke-width="7.9565" stroke-linecap="round" stroke-linejoin="round" stroke-miterlimit="10" points="
			175.1,140.4 175.1,103.1 190.7,100.7 190.7,140.4 		"/>
		
			<polyline fill="none" stroke="#000000" stroke-width="7.9565" stroke-linecap="round" stroke-linejoin="round" stroke-miterlimit="10" points="
			206.8,177.5 206.8,239 190.7,239 190.7,177.5 		"/>
		
			<polyline fill="none" stroke="#000000" stroke-width="7.9565" stroke-linecap="round" stroke-linejoin="round" stroke-miterlimit="10" points="
			190.7,140.4 190.7,100.7 206.8,98.2 206.8,139.3 		"/>
		
			<polyline fill="none" stroke="#000000" stroke-width="7.9565" stroke-linecap="round" stroke-linejoin="round" stroke-miterlimit="10" points="
			223.6,177.5 223.6,239 206.8,239 206.8,177.5 		"/>
		
			<polyline fill="none" stroke="#000000" stroke-width="7.9565" stroke-linecap="round" stroke-linejoin="round" stroke-miterlimit="10" points="
			206.8,139 206.8,98.2 223.6,95.6 223.6,137.4 		"/>
	</g>
	
		<polygon fill="#FFFFFF" stroke="#000000" stroke-width="7.9565" stroke-linecap="round" stroke-linejoin="round" stroke-miterlimit="10" points="
		453.9,159 129.6,165.9 129.2,154.8 453.3,140.4 	"/>
</g>
</svg>
