<?xml version="1.0" encoding="utf-8"?>
<!-- Generator: Adobe Illustrator 25.0.1, SVG Export Plug-In . SVG Version: 6.00 Build 0)  -->
<svg version="1.1" id="Layer_1" xmlns="http://www.w3.org/2000/svg" xmlns:xlink="http://www.w3.org/1999/xlink" x="0px" y="0px"
	 viewBox="0 0 512 512" enable-background="new 0 0 512 512" xml:space="preserve">
<g>
	<path fill="#FFFFFF" d="M308.6,356l28.4-28c5.1-5,12.8-6.3,19.3-3.2l3,1.4c3,1.4,3.9,5.3,1.8,7.8l-29.3,36.6L308.6,356z"/>
	
		<circle fill="#FFFFFF" stroke="#000000" stroke-width="7.9565" stroke-linecap="round" stroke-linejoin="round" stroke-miterlimit="10" cx="255" cy="110" r="28.5"/>
	
		<path fill="#F76746" stroke="#000000" stroke-width="7.9565" stroke-linecap="round" stroke-linejoin="round" stroke-miterlimit="10" d="
		M443,323.1H67.1c-6.1,0-11-4.9-11-11v-4.5c0-6.1,4.9-11,11-11H443c6.1,0,11,4.9,11,11v4.5C453.9,318.2,449,323.1,443,323.1z"/>
	
		<path fill="#FFFFFF" stroke="#000000" stroke-width="7.9565" stroke-linecap="round" stroke-linejoin="round" stroke-miterlimit="10" d="
		M255,112.6c-101.7,0-184.1,82.4-184.1,184.1h368.2C439.2,195,356.7,112.6,255,112.6z"/>
	
		<path fill="none" stroke="#000000" stroke-width="7.9565" stroke-linecap="round" stroke-linejoin="round" stroke-miterlimit="10" d="
		M321.2,343.6L337,328c4.2-4.1,10.1-5.7,15.6-4.5"/>
	
		<path fill="#FFFFFF" stroke="#000000" stroke-width="7.9565" stroke-linecap="round" stroke-linejoin="round" stroke-miterlimit="10" d="
		M129.9,359l35.7-26.4c7.9-5.8,17.3-9.1,27-9.4c3.9-0.1,7.8,0.2,11.6,1l40.5,12.8l42.9-13c8.1-2.5,16.8,0.3,22,7l0.2,0.2
		c2.7,3.5,1.6,8.6-2.3,10.7l-35.6,19.4l61.8-9.4l35.5-26.4c5.2-3.3,11.8-3.2,16.9,0.2l4.7,3.1c3.2,2.1,3.3,6.8,0.3,9.1l-37.3,31.9
		c-9,6.8-19.2,11.7-30,14.5l-30.9,8c-13.9,3.6-28.4,5-42.7,4.1l-28.7-3.7c-6.8-0.4-15.4,0-20.3,4.6l-12.1,9.6L129.9,359z"/>
	
		<path fill="#F76746" stroke="#000000" stroke-width="7.9565" stroke-linecap="round" stroke-linejoin="round" stroke-miterlimit="10" d="
		M168.2,428.2l-52.4-59.2c-3-3.3-2.6-8.4,0.7-11.4l9.7-8.6c3.3-3,8.4-2.6,11.4,0.7l52.4,59.2c3,3.3,2.6,8.4-0.7,11.4l-9.7,8.6
		C176.2,431.9,171.1,431.6,168.2,428.2z"/>
</g>
</svg>
