<?xml version="1.0" encoding="utf-8"?>
<!-- Generator: Adobe Illustrator 25.0.1, SVG Export Plug-In . SVG Version: 6.00 Build 0)  -->
<svg version="1.1" id="Layer_1" xmlns="http://www.w3.org/2000/svg" xmlns:xlink="http://www.w3.org/1999/xlink" x="0px" y="0px"
	 viewBox="0 0 512 512" enable-background="new 0 0 512 512" xml:space="preserve">
<g>
	<path fill="#F76746" d="M328.4,431.1H126.6c-6.8,0-12.4-5.5-12.4-12.4V113.4h226.5v305.3C340.8,425.6,335.2,431.1,328.4,431.1z"/>
	
		<path fill="none" stroke="#000000" stroke-width="7.9565" stroke-linecap="round" stroke-linejoin="round" stroke-miterlimit="10" d="
		M340.8,178.5v240.2c0,6.8-5.5,12.4-12.4,12.4H126.6c-6.8,0-12.4-5.5-12.4-12.4V190"/>
	
		<path fill="#FFFFFF" stroke="#000000" stroke-width="7.9565" stroke-linecap="round" stroke-linejoin="round" stroke-miterlimit="10" d="
		M329.1,431.1H126.1v9.7c0,7.9,6.4,14.4,14.4,14.4h174.4c7.9,0,14.4-6.4,14.4-14.4V431.1z"/>
	
		<path fill="none" stroke="#000000" stroke-width="7.9565" stroke-linecap="round" stroke-linejoin="round" stroke-miterlimit="10" d="
		M169.8,385.9L169.8,385.9c-8.1,0-14.7-6.6-14.7-14.7V211c0-8.1,6.6-14.7,14.7-14.7h0c8.1,0,14.7,6.6,14.7,14.7v160.3
		C184.5,379.4,178,385.9,169.8,385.9z"/>
	
		<path fill="none" stroke="#000000" stroke-width="7.9565" stroke-linecap="round" stroke-linejoin="round" stroke-miterlimit="10" d="
		M228.2,385.9L228.2,385.9c-8.1,0-14.7-6.6-14.7-14.7V211c0-8.1,6.6-14.7,14.7-14.7h0c8.1,0,14.7,6.6,14.7,14.7v160.3
		C242.9,379.4,236.3,385.9,228.2,385.9z"/>
	
		<path fill="none" stroke="#000000" stroke-width="7.9565" stroke-linecap="round" stroke-linejoin="round" stroke-miterlimit="10" d="
		M301.2,251.9v119.3c0,8.1-6.6,14.7-14.7,14.7h0c-8.1,0-14.7-6.6-14.7-14.7V254.8"/>
	
		<path fill="#FFFFFF" stroke="#000000" stroke-width="7.9565" stroke-linecap="round" stroke-linejoin="round" stroke-miterlimit="10" d="
		M323,76.6c-7.3,0-14.2,1.8-20.2,4.9c-9.6-14.5-26.1-24.2-44.9-24.2c-19.1,0-35.9,10-45.5,25.1c-4.2-1.6-8.7-2.4-13.5-2.4
		c-8.9,0-17.2,3-23.7,8.1c-9.6-9.7-23-15.8-37.8-15.8c-29.4,0-53.2,23.8-53.2,53.2s23.8,53.2,53.2,53.2c18.8,0,35.2-9.7,44.7-24.4
		c5.1,2.4,10.8,3.9,16.8,3.9c8.4,0,16.2-2.7,22.6-7.3c9.6,8.8,22.3,14.2,36.3,14.2c3.5,0,6.9-0.3,10.1-1v64.7
		c0,8.2,6.7,14.9,14.9,14.9c8.2,0,14.9-6.7,14.9-14.9V157c7.2,5,15.8,8,25.2,8c24.4,0,44.2-19.8,44.2-44.2S347.5,76.6,323,76.6z"/>
	
		<path fill="#FFFFFF" stroke="#000000" stroke-width="7.9565" stroke-linecap="round" stroke-linejoin="round" stroke-miterlimit="10" d="
		M397.6,184.6h-56.8v199.8h56.8c15.6,0,28.2-12.6,28.2-28.2V212.9C425.8,197.3,413.2,184.6,397.6,184.6z M395,353.6h-54.3V215.4H395
		V353.6z"/>
</g>
</svg>
