<?xml version="1.0" encoding="utf-8"?>
<!-- Generator: Adobe Illustrator 25.0.1, SVG Export Plug-In . SVG Version: 6.00 Build 0)  -->
<svg version="1.1" id="Layer_1" xmlns="http://www.w3.org/2000/svg" xmlns:xlink="http://www.w3.org/1999/xlink" x="0px" y="0px"
	 viewBox="0 0 512 512" enable-background="new 0 0 512 512" xml:space="preserve">
<g>
	<g>
		<path fill="#FFFFFF" d="M407.2,70l-28.1-12.6l-40,83.7c-3.6,6.9-8.5,13.1-14.3,18.2l-8.9,7.8c-13.1,11.4-23.5,25.5-30.7,41.3
			l-47,104.3c-2.1,4.6,0,10.1,4.6,12.1l54.5,24.5c4.6,2.1,10.1,0,12.1-4.6l47-104.3c7.1-15.8,10.7-33,10.6-50.3l-0.1-11.8
			c-0.1-7.8,1.3-15.5,4.1-22.8L407.2,70z"/>
		
			<path fill="none" stroke="#000000" stroke-width="7.9565" stroke-linecap="round" stroke-linejoin="round" stroke-miterlimit="10" d="
			M294,192.3c-3.3,5.1-6.2,10.5-8.8,16.1l-47,104.3c-2.1,4.6,0,10.1,4.6,12.1l54.5,24.5c4.6,2.1,10.1,0,12.1-4.6l47-104.3
			c7.1-15.8,10.7-33,10.6-50.3"/>
		
			<path fill="none" stroke="#000000" stroke-width="7.9565" stroke-linecap="round" stroke-linejoin="round" stroke-miterlimit="10" d="
			M367,178.2c-0.1-7.8,1.3-15.5,4.1-22.8L407.2,70l-28.1-12.6l-40,83.7c-3.6,6.9-8.5,13.1-14.3,18.2l-8.9,7.8
			c-4,3.5-7.8,7.2-11.3,11.2"/>
		
			<rect x="265.6" y="232.9" transform="matrix(0.9119 0.4105 -0.4105 0.9119 133.7443 -102.0857)" fill="#FFFFFF" stroke="#000000" stroke-width="7.9565" stroke-linecap="round" stroke-linejoin="round" stroke-miterlimit="10" width="78.1" height="55"/>
		
			<path fill="#F76746" stroke="#000000" stroke-width="7.9565" stroke-linecap="round" stroke-linejoin="round" stroke-miterlimit="10" d="
			M343,175.2l26.9-16.2c0.4-1.2,0.8-2.3,1.2-3.5L407.2,70l-28.1-12.6l-40,83.7c-0.6,1.1-1.2,2.1-1.8,3.2L343,175.2z"/>
		
			<ellipse transform="matrix(0.4105 -0.9119 0.9119 0.4105 -28.0303 426.7715)" fill="#FFFFFF" stroke="#000000" stroke-width="7.9565" stroke-linecap="round" stroke-linejoin="round" stroke-miterlimit="10" cx="316" cy="235.1" rx="20.5" ry="15.8"/>
		
			<polygon fill="#FFFFFF" stroke="#000000" stroke-width="7.9565" stroke-linecap="round" stroke-linejoin="round" stroke-miterlimit="10" points="
			361.9,93.4 368,80.6 397.2,93.7 391.7,106.8 		"/>
	</g>
	
		<rect x="216" y="175.2" transform="matrix(0.7071 0.7071 -0.7071 0.7071 205.6064 -109.1106)" fill="#FFFFFF" width="36.9" height="36.9"/>
	
		<polyline fill="none" stroke="#000000" stroke-width="7.9565" stroke-linecap="round" stroke-linejoin="round" stroke-miterlimit="10" points="
		208.4,193.6 234.5,167.5 245.3,178.3 	"/>
	
		<rect x="250.5" y="175.2" transform="matrix(0.7071 0.7071 -0.7071 0.7071 215.7047 -133.4902)" fill="#FFFFFF" width="36.9" height="36.9"/>
	
		<polyline fill="none" stroke="#000000" stroke-width="7.9565" stroke-linecap="round" stroke-linejoin="round" stroke-miterlimit="10" points="
		258,178.5 269,167.5 280.4,178.9 	"/>
	
		<rect x="186.9" y="169.9" transform="matrix(0.7071 0.7071 -0.7071 0.7071 193.3109 -90.0353)" fill="#FFFFFF" width="36.9" height="36.9"/>
	
		<polyline fill="none" stroke="#000000" stroke-width="7.9565" stroke-linecap="round" stroke-linejoin="round" stroke-miterlimit="10" points="
		188.1,179.4 191.2,176.4 205.3,162.2 223.2,180.1 	"/>
	<g>
		<g>
			
				<line fill="none" stroke="#000000" stroke-width="7.9565" stroke-linecap="round" stroke-linejoin="round" stroke-miterlimit="10" x1="378.8" y1="213.6" x2="420.3" y2="213.6"/>
			
				<path fill="#FFFFFF" stroke="#000000" stroke-width="7.9565" stroke-linecap="round" stroke-linejoin="round" stroke-miterlimit="10" d="
				M404.7,263L404.7,263c4.5,0,8.2-3.7,8.2-8.2v-45.2c0-4.5-3.7-8.2-8.2-8.2l0,0c-4.5,0-8.2,3.7-8.2,8.2v45.2
				C396.5,259.3,400.1,263,404.7,263z"/>
		</g>
		<g>
			
				<line fill="none" stroke="#000000" stroke-width="7.9565" stroke-linecap="round" stroke-linejoin="round" stroke-miterlimit="10" x1="131.2" y1="213.6" x2="89.7" y2="213.6"/>
			
				<path fill="#FFFFFF" stroke="#000000" stroke-width="7.9565" stroke-linecap="round" stroke-linejoin="round" stroke-miterlimit="10" d="
				M105.4,263L105.4,263c-4.5,0-8.2-3.7-8.2-8.2v-45.2c0-4.5,3.7-8.2,8.2-8.2h0c4.5,0,8.2,3.7,8.2,8.2v45.2
				C113.6,259.3,109.9,263,105.4,263z"/>
		</g>
	</g>
	<rect x="146.3" y="167.2" fill="#FFFFFF" width="36.9" height="36.9"/>
	
		<polyline fill="none" stroke="#000000" stroke-width="7.9565" stroke-linecap="round" stroke-linejoin="round" stroke-miterlimit="10" points="
		146.3,177.5 146.3,167.2 183.3,167.2 183.3,177.7 	"/>
	
		<path fill="#FFFFFF" stroke="#000000" stroke-width="7.9565" stroke-linecap="round" stroke-linejoin="round" stroke-miterlimit="10" d="
		M327.4,455.1H182.7c-14.9,0-27.3-11.3-28.8-26L130,189.2h250l-23.9,239.9C354.7,443.9,342.2,455.1,327.4,455.1z"/>
	
		<path fill="#F76746" stroke="#000000" stroke-width="7.9565" stroke-linecap="round" stroke-linejoin="round" stroke-miterlimit="10" d="
		M151.6,405.9l2.3,23.2c1.5,14.8,13.9,26,28.8,26h144.7c14.9,0,27.3-11.3,28.8-26l2.3-23.2H151.6z"/>
</g>
</svg>
