<?xml version="1.0" encoding="utf-8"?>
<!-- Generator: Adobe Illustrator 25.0.1, SVG Export Plug-In . SVG Version: 6.00 Build 0)  -->
<svg version="1.1" id="Layer_1" xmlns="http://www.w3.org/2000/svg" xmlns:xlink="http://www.w3.org/1999/xlink" x="0px" y="0px"
	 viewBox="0 0 512 512" enable-background="new 0 0 512 512" xml:space="preserve">
<g>
	<path fill="#F76746" d="M368.2,178.9L368.2,178.9c-3.9-3.9-3.9-10.2,0-14.1l60-60c3.8-3.8,3.8-9.9,0-13.6l-0.1-0.1
		c-3.8-3.8-9.9-3.8-13.6,0l-60,60c-3.9,3.9-10.2,3.9-14.1,0l0,0c-3.9-3.9-3.9-10.2,0-14.1l60-60c3.8-3.8,3.8-9.9,0-13.6v0
		c-3.8-3.8-9.9-3.8-13.6,0l-79.3,79.3c-15.5,15.5-18.4,38.7-8.9,57.1L73.2,418.9c-7.7,7.5-7.8,19.8-0.2,27.4
		c7.6,7.6,19.9,7.5,27.4-0.2l219.2-225.3c18.4,9.5,41.7,6.6,57.1-8.9l79.3-79.3c3.8-3.8,3.8-9.9,0-13.6v0c-3.8-3.8-9.9-3.8-13.6,0
		l-60,60C378.4,182.8,372.1,182.8,368.2,178.9z"/>
	
		<path fill="none" stroke="#000000" stroke-width="7.9565" stroke-linecap="round" stroke-linejoin="round" stroke-miterlimit="10" d="
		M283.4,257.9l36.1-37.1c18.4,9.5,41.7,6.6,57.1-8.9l79.3-79.3c3.8-3.8,3.8-9.9,0-13.6v0c-3.8-3.8-9.9-3.8-13.6,0l-60,60
		c-3.9,3.9-10.2,3.9-14.1,0l0,0c-3.9-3.9-3.9-10.2,0-14.1l60-60c3.8-3.8,3.8-9.9,0-13.6l-0.1-0.1c-3.8-3.8-9.9-3.8-13.6,0l-60,60
		c-3.9,3.9-10.2,3.9-14.1,0l0,0c-3.9-3.9-3.9-10.2,0-14.1l60-60c3.8-3.8,3.8-9.9,0-13.6v0c-3.8-3.8-9.9-3.8-13.6,0l-79.3,79.3
		c-15.5,15.5-18.4,38.7-8.9,57.1l-37.7,36.7"/>
	
		<path fill="none" stroke="#000000" stroke-width="7.9565" stroke-linecap="round" stroke-linejoin="round" stroke-miterlimit="10" d="
		M213.6,282.3L73.2,418.9c-7.7,7.5-7.8,19.8-0.2,27.4c7.6,7.6,19.9,7.5,27.4-0.2l137-140.9"/>
	
		<path fill="#FFFFFF" stroke="#000000" stroke-width="7.9565" stroke-linecap="round" stroke-linejoin="round" stroke-miterlimit="10" d="
		M194.1,123.4C160.4,89.8,96.7,66,72,90.7s-1,88.4,32.7,122c28.3,28.3,56.1,27.8,78.9,12.3l213.9,220.6c8.1,8.3,21.4,8.4,29.6,0.2
		s8.1-21.5-0.2-29.6L206.4,202.3C221.9,179.5,222.3,151.7,194.1,123.4z"/>
</g>
</svg>
