<?xml version="1.0" encoding="utf-8"?>
<!-- Generator: Adobe Illustrator 25.0.1, SVG Export Plug-In . SVG Version: 6.00 Build 0)  -->
<svg version="1.1" id="Layer_1" xmlns="http://www.w3.org/2000/svg" xmlns:xlink="http://www.w3.org/1999/xlink" x="0px" y="0px"
	 viewBox="0 0 512 512" enable-background="new 0 0 512 512" xml:space="preserve">
<g>
	<path fill="#FFFFFF" d="M206.8,131.1L206.8,131.1c0.6,3.4-1.6,6.7-5,7.3l-52.3,9.5c-3.3,0.6-5.5,3.7-4.9,7l0,0.1
		c0.6,3.3,3.7,5.5,7,4.9l52.3-9.5c3.4-0.6,6.7,1.6,7.3,5v0c0.6,3.4-1.6,6.7-5,7.3l-52.3,9.5c-3.3,0.6-5.5,3.7-4.9,7v0
		c0.6,3.3,3.7,5.5,7,4.9l69.1-12.6c13.5-2.5,23.3-13.4,25-26.3l194.3-32.6c6.6-1.1,11.1-7.4,9.9-14c-1.2-6.6-7.6-11-14.2-9.7
		l-193.3,38c-6.1-11.5-19.1-18.3-32.6-15.8L145,123.7c-3.3,0.6-5.5,3.7-4.9,7v0c0.6,3.3,3.7,5.5,7,4.9l52.3-9.5
		C202.9,125.4,206.1,127.7,206.8,131.1z"/>
	
		<path fill="none" stroke="#000000" stroke-width="7.9565" stroke-linecap="round" stroke-linejoin="round" stroke-miterlimit="10" d="
		M206.4,174.9l18.8-3.4c13.5-2.5,23.3-13.4,25-26.3l194.3-32.6c6.6-1.1,11.1-7.4,9.9-14c-1.2-6.6-7.6-11-14.2-9.7l-193.3,38
		c-6.1-11.5-19.1-18.3-32.6-15.8l-7.5,1.4"/>
	
		<path fill="none" stroke="#000000" stroke-width="7.9565" stroke-linecap="round" stroke-linejoin="round" stroke-miterlimit="10" d="
		M153.9,172.2c-3.3,0.6-5.5,3.7-4.9,7v0c0.6,3.3,3.7,5.5,7,4.9"/>
	
		<path fill="none" stroke="#000000" stroke-width="7.9565" stroke-linecap="round" stroke-linejoin="round" stroke-miterlimit="10" d="
		M205.8,150.3c2.6,0.3,4.8,2.3,5.3,5.1v0c0.6,3.4-1.6,6.7-5,7.3"/>
	
		<path fill="none" stroke="#000000" stroke-width="7.9565" stroke-linecap="round" stroke-linejoin="round" stroke-miterlimit="10" d="
		M149.4,147.9c-3.3,0.6-5.5,3.7-4.9,7l0,0.1c0.6,3.3,3.7,5.5,7,4.9"/>
	
		<path fill="none" stroke="#000000" stroke-width="7.9565" stroke-linecap="round" stroke-linejoin="round" stroke-miterlimit="10" d="
		M205.8,128.8c0.4,0.7,0.8,1.5,0.9,2.3v0c0.3,1.5,0,3-0.7,4.2"/>
	
		<path fill="none" stroke="#000000" stroke-width="7.9565" stroke-linecap="round" stroke-linejoin="round" stroke-miterlimit="10" d="
		M145,123.7c-3.3,0.6-5.5,3.7-4.9,7v0c0.6,3.3,3.7,5.5,7,4.9"/>
	
		<path fill="#FFFFFF" stroke="#000000" stroke-width="7.9565" stroke-linecap="round" stroke-linejoin="round" stroke-miterlimit="10" d="
		M238.6,422.2h-8.8c-96.2,0-174.2-78-174.2-174.2v0h357.3v0C412.9,344.2,334.9,422.2,238.6,422.2z"/>
	
		<path fill="#F76746" stroke="#000000" stroke-width="7.9565" stroke-linecap="round" stroke-linejoin="round" stroke-miterlimit="10" d="
		M320.6,400.8H147.9v9.9c0,7.3,5.9,13.2,13.2,13.2h146.4c7.3,0,13.2-5.9,13.2-13.2V400.8z"/>
	
		<polygon fill="#FFFFFF" stroke="#000000" stroke-width="7.9565" stroke-linecap="round" stroke-linejoin="round" stroke-miterlimit="10" points="
		132.7,248 117,248 117,122.7 132.7,120 	"/>
	
		<polygon fill="#FFFFFF" stroke="#000000" stroke-width="7.9565" stroke-linecap="round" stroke-linejoin="round" stroke-miterlimit="10" points="
		148.5,248 132.7,248 132.7,120 148.5,117.3 	"/>
	
		<polygon fill="#FFFFFF" stroke="#000000" stroke-width="7.9565" stroke-linecap="round" stroke-linejoin="round" stroke-miterlimit="10" points="
		164.2,248 148.5,248 148.5,117.3 164.2,114.7 	"/>
	
		<polygon fill="#FFFFFF" stroke="#000000" stroke-width="7.9565" stroke-linecap="round" stroke-linejoin="round" stroke-miterlimit="10" points="
		179.9,248 164.2,248 164.2,114.7 179.9,112 	"/>
	
		<polygon fill="#FFFFFF" stroke="#000000" stroke-width="7.9565" stroke-linecap="round" stroke-linejoin="round" stroke-miterlimit="10" points="
		195.7,248 179.9,248 179.9,112 195.7,109.4 	"/>
</g>
</svg>
