<?xml version="1.0" encoding="utf-8"?>
<!-- Generator: Adobe Illustrator 25.0.1, SVG Export Plug-In . SVG Version: 6.00 Build 0)  -->
<svg version="1.1" id="Layer_1" xmlns="http://www.w3.org/2000/svg" xmlns:xlink="http://www.w3.org/1999/xlink" x="0px" y="0px"
	 viewBox="0 0 512 512" enable-background="new 0 0 512 512" xml:space="preserve">
<g>
	<g>
		
			<path fill="#FFFFFF" stroke="#000000" stroke-width="7.9565" stroke-linecap="round" stroke-linejoin="round" stroke-miterlimit="10" d="
			M167.2,57.7h175.7c9.4,0,17,7.6,17,17v363.2c0,9.4-7.6,17-17,17H167.2c-9.4,0-17-7.6-17-17V74.6C150.2,65.3,157.8,57.7,167.2,57.7
			z"/>
		
			<line fill="none" stroke="#000000" stroke-width="7.9565" stroke-linecap="round" stroke-linejoin="round" stroke-miterlimit="10" x1="208.7" y1="81.9" x2="301.4" y2="81.9"/>
	</g>
	
		<path fill="none" stroke="#000000" stroke-width="7.9565" stroke-linecap="round" stroke-linejoin="round" stroke-miterlimit="10" d="
		M250.7,127.7v29.1c0,10.8-7.3,15.4-16.4,15.4h0c-9.1,0-16.4-4.6-16.4-15.4v-29.1"/>
	
		<line fill="#FFFFFF" stroke="#000000" stroke-width="7.9565" stroke-linecap="round" stroke-linejoin="round" stroke-miterlimit="10" x1="234.3" y1="176.4" x2="234.3" y2="127.7"/>
	
		<line fill="#FFFFFF" stroke="#000000" stroke-width="7.9565" stroke-linecap="round" stroke-linejoin="round" stroke-miterlimit="10" x1="234.3" y1="276.4" x2="234.3" y2="176.4"/>
	
		<path fill="#FFFFFF" stroke="#000000" stroke-width="7.9565" stroke-linecap="round" stroke-linejoin="round" stroke-miterlimit="10" d="
		M275.9,127.7v100.4l11.3-9.7c5.9-5,9-12.6,8.4-20.3l-1.9-24.1C292.5,157.2,286.3,141.1,275.9,127.7L275.9,127.7z"/>
	
		<line fill="none" stroke="#000000" stroke-width="7.9565" stroke-linecap="round" stroke-linejoin="round" stroke-miterlimit="10" x1="275.9" y1="276.4" x2="275.9" y2="228.2"/>
	<g>
		
			<path fill="#FFFFFF" stroke="#000000" stroke-width="7.9565" stroke-linecap="round" stroke-linejoin="round" stroke-miterlimit="10" d="
			M195.4,346.1l7.3,12.7l14.3-3c3.4-0.7,5.7,3.3,3.4,5.9l-9.8,10.8l7.3,12.7c1.7,3-1.4,6.4-4.6,5l-13.3-6l-9.8,10.8
			c-2.3,2.6-6.6,0.7-6.2-2.8l1.6-14.6l-13.3-6c-3.1-1.4-2.6-6,0.7-6.7l14.3-3l1.6-14.6C189.1,344.1,193.7,343.1,195.4,346.1z"/>
		
			<path fill="#FFFFFF" stroke="#000000" stroke-width="7.9565" stroke-linecap="round" stroke-linejoin="round" stroke-miterlimit="10" d="
			M314.7,346.1l-7.3,12.7l-14.3-3c-3.4-0.7-5.7,3.3-3.4,5.9l9.8,10.8l-7.3,12.7c-1.7,3,1.4,6.4,4.6,5l13.3-6l9.8,10.8
			c2.3,2.6,6.6,0.7,6.2-2.8l-1.6-14.6l13.3-6c3.1-1.4,2.6-6-0.7-6.7l-14.3-3l-1.6-14.6C320.9,344.1,316.4,343.1,314.7,346.1z"/>
	</g>
	
		<path fill="#F76746" stroke="#000000" stroke-width="7.9565" stroke-linecap="round" stroke-linejoin="round" stroke-miterlimit="10" d="
		M259.5,313.5l6,18.3h19.3c4.5,0,6.4,5.8,2.8,8.5l-15.6,11.3l6,18.3c1.4,4.3-3.5,7.9-7.2,5.2L255,363.9l-15.6,11.3
		c-3.7,2.7-8.6-0.9-7.2-5.2l6-18.3l-15.6-11.3c-3.7-2.7-1.8-8.5,2.8-8.5h19.3l6-18.3C252,309.1,258.1,309.1,259.5,313.5z"/>
</g>
</svg>
