<?xml version="1.0" encoding="utf-8"?>
<!-- Generator: Adobe Illustrator 25.0.1, SVG Export Plug-In . SVG Version: 6.00 Build 0)  -->
<svg version="1.1" id="Layer_1" xmlns="http://www.w3.org/2000/svg" xmlns:xlink="http://www.w3.org/1999/xlink" x="0px" y="0px"
	 viewBox="0 0 512 512" enable-background="new 0 0 512 512" xml:space="preserve">
<g>
	<path fill="#FFFFFF" d="M223.2,207.1l-68.3,20.7C110,241.4,89,293,111.8,334l0,0h282.4v0C394.2,245,308.3,181.3,223.2,207.1z"/>
	
		<line fill="none" stroke="#000000" stroke-width="7.9565" stroke-linecap="round" stroke-linejoin="round" stroke-miterlimit="10" x1="111.8" y1="334" x2="394.2" y2="334"/>
	
		<path fill="none" stroke="#000000" stroke-width="7.9565" stroke-linecap="round" stroke-linejoin="round" stroke-miterlimit="10" d="
		M272.2,201.7c-16-1.3-32.5,0.4-49.1,5.4l-68.3,20.7c-32.8,9.9-52.8,40.1-52.4,71.6"/>
	
		<path fill="none" stroke="#000000" stroke-width="7.9565" stroke-linecap="round" stroke-linejoin="round" stroke-miterlimit="10" d="
		M389.8,299.8c-3.7-13.9-9.5-26.7-17.1-38.3"/>
	
		<circle fill="#F76746" stroke="#000000" stroke-width="7.9565" stroke-linecap="round" stroke-linejoin="round" stroke-miterlimit="10" cx="110.2" cy="332.5" r="18.1"/>
	
		<circle fill="#FFFFFF" stroke="#000000" stroke-width="7.9565" stroke-linecap="round" stroke-linejoin="round" stroke-miterlimit="10" cx="367.7" cy="335.3" r="18.1"/>
	
		<circle fill="#F76746" stroke="#000000" stroke-width="7.9565" stroke-linecap="round" stroke-linejoin="round" stroke-miterlimit="10" cx="401.5" cy="332.3" r="21.1"/>
	
		<circle fill="#FFFFFF" stroke="#000000" stroke-width="7.9565" stroke-linecap="round" stroke-linejoin="round" stroke-miterlimit="10" cx="165.2" cy="333.4" r="14.3"/>
	
		<path fill="#FFFFFF" stroke="#000000" stroke-width="7.9565" stroke-linecap="round" stroke-linejoin="round" stroke-miterlimit="10" d="
		M56.1,334h393.7l-13.4,11.8c-21.8,19.1-49.8,29.7-78.8,29.7H148.3c-29,0-57-10.6-78.8-29.7L56.1,334z"/>
	
		<path fill="#FFFFFF" stroke="#000000" stroke-width="7.9565" stroke-linecap="round" stroke-linejoin="round" stroke-miterlimit="10" d="
		M410.6,161.5c0.5,0.8,1.1,1.5,1.8,2.2l-55.4,36.4l11.2,17l55.4-36.4c0.4,0.9,0.8,1.7,1.3,2.5c4.8,7.3,14.6,9.3,21.9,4.6
		s9.3-14.6,4.6-21.9c-3-4.5-7.8-7-12.8-7.1c1.9-4.7,1.5-10.1-1.4-14.6c-4.8-7.3-14.6-9.3-21.9-4.6S405.8,154.2,410.6,161.5z"/>
	
		<path fill="#F76746" stroke="#000000" stroke-width="7.9565" stroke-linecap="round" stroke-linejoin="round" stroke-miterlimit="10" d="
		M368.1,214l-8.3-12.7c-4.9-7.5-13.1-12.4-22.1-12.6c-13.2-0.3-28.1,4-41.8,13c-27.8,18.2-39.9,48.9-27.1,68.5
		c12.8,19.6,45.8,20.7,73.6,2.4c13.7-9,23.6-21,28.6-33.2C374.2,231,373,221.5,368.1,214z"/>
</g>
</svg>
